<svg xmlns="http://www.w3.org/2000/svg" viewBox="0 0 50 52" width="47" height="49">
	<style>
		tspan { white-space:pre }
		.shp0 { fill: #ffffff } 
	</style>
	<path id="Layer" fill-rule="evenodd" class="shp0" d="M17.21 42.26C14.52 42.26 10.9 40.71 9.07 38.16C0.27 38.16 0 51.63 0 51.63L34.26 51.63C34.27 51.63 34.95 38.11 25.06 38.11C23.23 40.68 19.92 42.26 17.21 42.26Z" />
	<path id="Layer" fill-rule="evenodd" class="shp0" d="M24.78 21.48C24.78 25.79 21.32 34.05 17.04 34.05C12.77 34.05 9.31 25.79 9.31 21.48C9.31 17.17 12.77 13.66 17.04 13.66C21.32 13.66 24.78 17.17 24.78 21.48L24.78 21.48Z" />
	<path id="Layer" fill-rule="evenodd" class="shp0" d="M39.15 0C33.17 0 28.31 4 28.31 8.94C28.31 13.45 32.37 17.16 37.62 17.78L34.53 24.03L43.16 17.24C47.16 15.92 50 12.7 50 8.94C50 4 45.14 0 39.15 0L39.15 0Z" />
</svg>