<svg width="63" height="66" viewBox="0 0 63 66" fill="none" xmlns="http://www.w3.org/2000/svg">
<path fill-rule="evenodd" clip-rule="evenodd" d="M21.6908 53.2444C18.296 53.2444 13.7368 51.2918 11.4237 48.0869C0.335526 48.0869 0 65.0509 0 65.0509H43.1723C43.1763 65.0509 44.0408 48.0173 31.5789 48.0173C29.2737 51.2571 25.0934 53.2444 21.6908 53.2444Z" fill="#E13938"/>
<path fill-rule="evenodd" clip-rule="evenodd" d="M31.2198 27.0613C31.2198 32.5014 26.8579 42.9033 21.4737 42.9033C16.0895 42.9033 11.7277 32.5014 11.7277 27.0613C11.7277 21.6299 16.0856 17.2161 21.4737 17.2161C26.8579 17.2161 31.2198 21.6299 31.2198 27.0613V27.0613Z" fill="#E13938"/>
<path fill-rule="evenodd" clip-rule="evenodd" d="M49.3342 0C41.7947 0 35.6724 5.0357 35.6724 11.2629C35.6724 16.9422 40.7803 21.6213 47.4 22.3997L43.5079 30.2794L54.3868 21.717C59.4276 20.0602 63 16.0073 63 11.2629C62.996 5.0357 56.8816 0 49.3342 0V0Z" fill="#E13938"/>
</svg>
