<svg xmlns="http://www.w3.org/2000/svg" viewBox="0 0 45 51" width="50" height="57">
	<style>
		tspan { white-space:pre }
		.shp0 { fill: #ffffff } 
	</style>
	<path id="Layer" fill-rule="evenodd" class="shp0" d="M44.6 48.36C44.79 48.57 44.92 48.85 44.97 49.15C45.03 49.45 45 49.76 44.9 50.05C44.79 50.33 44.62 50.57 44.39 50.74C44.17 50.91 43.9 51 43.64 51L1.36 51C1 51 0.65 50.84 0.4 50.55C0.14 50.26 0 49.86 0 49.45L0 41.62L2.94 41.62L2.94 39.15L0 39.15L0 28.87L2.94 28.87L2.94 26.4L0 26.4L0 16.51L2.94 16.51L2.94 14.04L0 14.04L0 1.55C0 1.25 0.08 0.95 0.23 0.69C0.38 0.44 0.59 0.24 0.84 0.12C1.09 0 1.36 -0.03 1.62 0.03C1.89 0.09 2.13 0.24 2.32 0.46L27.14 28.58L27.14 12.12L30.07 5.57C30.3 5.07 30.64 4.66 31.07 4.37C31.49 4.07 31.97 3.92 32.47 3.92C32.96 3.92 33.45 4.07 33.87 4.37C34.29 4.66 34.64 5.07 34.87 5.57L37.99 12.11L37.99 40.88L44.6 48.36ZM23.16 38.76L10.85 24.76L10.85 38.76L23.16 38.76ZM35.28 38.27L29.85 38.27L29.85 42.02L35.28 42.02L35.28 38.27ZM35.28 12.9L32.48 7.06L29.85 12.88L29.85 35.84L35.28 35.84L35.28 12.9Z" />
</svg>