<svg width="50" height="49" viewBox="0 0 50 49" fill="none" xmlns="http://www.w3.org/2000/svg">
<path d="M12.2437 26.0129L17.7188 29.0692V34.8513L23.7625 38.2751V25.284L12.2437 18.767V26.0129ZM48 0H2C0.89375 0 0 0.875875 0 1.96V47.04C0 48.1241 0.89375 49 2 49H48C49.1063 49 50 48.1241 50 47.04V1.96C50 0.875875 49.1063 0 48 0ZM40.2313 33.1485L25 41.7725L9.76875 33.1485V15.9127L16.6437 12.0173L16.6187 12.005H16.6313L25 7.28875L33.375 12.005H33.3625L33.3438 12.0173L40.225 15.9127V33.1485H40.2313ZM26.2375 38.2751L32.3187 34.8329V29.0692L37.7562 26.0374V18.7731L26.2375 25.2963V38.2751ZM24.9875 16.7151L19.125 13.4138L13.4312 16.6355L25.0062 23.1893L36.5812 16.6416L30.8688 13.4076L24.9875 16.7151Z" fill="white"/>
</svg>
