<svg xmlns="http://www.w3.org/2000/svg" viewBox="0 0 60 45" width="50" height="38">
	<style>
		tspan { white-space:pre }
		.shp0 { fill: #ffffff } 
	</style>
	<path id="Layer" fill-rule="evenodd" class="shp0" d="M59.66 32.56C59.93 32.73 60.06 33.08 59.97 33.42C59.34 35.59 58.26 37.56 56.86 39.18C56.64 39.43 56.28 39.49 56.01 39.32L53.59 37.83C52.57 38.76 51.4 39.48 50.13 39.97L50.13 42.96C50.13 43.3 49.91 43.6 49.6 43.67C47.61 44.16 45.48 44.18 43.39 43.67C43.08 43.6 42.86 43.3 42.86 42.96L42.86 39.97C41.59 39.48 40.42 38.76 39.4 37.83L36.98 39.32C36.7 39.49 36.35 39.43 36.14 39.18C34.73 37.55 33.65 35.59 33.02 33.42C32.93 33.08 33.05 32.73 33.33 32.56L35.75 31.07C35.51 29.65 35.51 28.2 35.75 26.79L33.33 25.29C33.06 25.12 32.93 24.77 33.02 24.43C33.65 22.26 34.73 20.29 36.14 18.67C36.35 18.42 36.71 18.36 36.98 18.53L39.4 20.02C40.42 19.09 41.59 18.37 42.86 17.88L42.86 14.89C42.86 14.55 43.08 14.25 43.39 14.18C45.38 13.69 47.51 13.67 49.6 14.18C49.91 14.25 50.13 14.55 50.13 14.89L50.13 17.88C51.4 18.37 52.57 19.09 53.59 20.02L56.01 18.53C56.29 18.36 56.64 18.42 56.86 18.67C58.26 20.29 59.34 22.26 59.97 24.43C60.06 24.77 59.94 25.12 59.66 25.29L57.24 26.79C57.48 28.2 57.48 29.65 57.24 31.07L59.66 32.56ZM51.05 28.93C51.05 26.24 49.01 24.05 46.5 24.05C44 24.05 41.96 26.24 41.96 28.93C41.96 31.61 43.99 33.8 46.5 33.8C49.02 33.8 51.05 31.61 51.05 28.93ZM3 12.85C3 9.3 5.69 6.42 9 6.42C12.31 6.42 15 9.3 15 12.85C15 16.4 12.31 19.28 9 19.28C5.69 19.28 3 16.4 3 12.85ZM19.5 11.24C19.5 5.02 24.19 0 29.99 0C35.8 0 40.49 5.03 40.49 11.25C40.49 12.98 40.1 14.61 39.44 16.07C39.37 16.13 39.29 16.17 39.22 16.22L38.48 15.75C37.93 15.4 37.29 15.22 36.64 15.22C35.61 15.22 34.63 15.68 33.93 16.49C32.45 18.2 31.31 20.25 30.53 22.43C30.35 22.44 30.18 22.5 30 22.5C24.2 22.5 19.5 17.46 19.5 11.24ZM39.87 42.96C39.87 43.71 40.1 44.4 40.45 45L16.5 45C14.02 45 12 42.84 12 40.18L12 37.28C12 30.89 16.84 25.71 22.81 25.71L23.59 25.71C25.55 26.71 27.71 27.32 30.01 27.32C30.32 27.32 30.62 27.28 30.93 27.26C31.19 27.57 31.49 27.85 31.85 28.07L32.59 28.53C32.58 28.79 32.58 29.06 32.59 29.32C32.51 29.38 29.17 30.9 30.17 34.37C30.91 36.95 32.23 39.37 33.94 41.36C34.64 42.17 35.63 42.63 36.65 42.63C37.79 42.63 38.46 42.13 39.23 41.64C39.44 41.77 39.65 41.92 39.87 42.04L39.87 42.96ZM16.23 24.36C12.45 26.58 9.77 30.59 9.18 35.35L3 35.35C1.34 35.35 0 33.92 0 32.14L0 28.93C0 25.38 2.69 22.5 6 22.5L12 22.5C13.65 22.5 15.14 23.21 16.23 24.36Z" />
</svg>