<svg width="47" height="51" viewBox="0 0 47 51" fill="none" xmlns="http://www.w3.org/2000/svg">
<path fill-rule="evenodd" clip-rule="evenodd" d="M31.3332 25.5H37.2552C37.83 24.4197 38.7173 23.5754 39.7793 23.098C40.8414 22.6206 42.019 22.5369 43.1294 22.8598C44.2398 23.1826 45.221 23.894 45.9208 24.8837C46.6207 25.8733 47 27.0859 47 28.3333C47 29.5808 46.6207 30.7933 45.9208 31.783C45.221 32.7726 44.2398 33.4841 43.1294 33.8069C42.019 34.1298 40.8414 34.046 39.7793 33.5687C38.7173 33.0913 37.83 32.247 37.2552 31.1667H31.3332V45.3333C31.3332 46.8362 30.783 48.2776 29.8037 49.3403C28.8243 50.403 27.4961 51 26.111 51H5.22221C3.83719 51 2.50891 50.403 1.52955 49.3403C0.550198 48.2776 -9.53674e-07 46.8362 -9.53674e-07 45.3333V5.66667C-9.53674e-07 4.16377 0.550198 2.72243 1.52955 1.65973C2.50891 0.597023 3.83719 -9.83477e-07 5.22221 -9.83477e-07H26.111C27.4961 -9.83477e-07 28.8243 0.597023 29.8037 1.65973C30.783 2.72243 31.3332 4.16377 31.3332 5.66667V25.5ZM26.111 25.5V5.66667H5.22221V45.3333H26.111V31.1667H20.1891C19.6143 32.247 18.727 33.0913 17.6649 33.5687C16.6029 34.046 15.4253 34.1298 14.3149 33.8069C13.2045 33.4841 12.2233 32.7726 11.5234 31.783C10.8236 30.7933 10.4443 29.5808 10.4443 28.3333C10.4443 27.0859 10.8236 25.8733 11.5234 24.8837C12.2233 23.894 13.2045 23.1826 14.3149 22.8598C15.4253 22.5369 16.6029 22.6206 17.6649 23.098C18.727 23.5754 19.6143 24.4197 20.1891 25.5H26.111Z" fill="white"/>
</svg>
