<svg xmlns="http://www.w3.org/2000/svg" viewBox="0 0 36 48" width="50" height="67"><style>tspan { white-space:pre }.shp0 { fill: #ffffff } </style><path id="Layer" fill-rule="evenodd" class="shp0" d="M21.62 0C22.4 0 23.16 0.31 23.71 0.87L34.7 11.92C35.26 12.48 35.57 13.23 35.57 14.02L35.57 41.71C35.57 43.29 34.94 44.8 33.83 45.92C32.72 47.04 31.21 47.67 29.64 47.67L5.93 47.67C4.36 47.67 2.85 47.04 1.74 45.92C0.62 44.8 0 43.29 0 41.71L0 5.96C0 4.38 0.62 2.86 1.74 1.75C2.85 0.63 4.36 0 5.93 0L21.62 0ZM23.1 12.53C23.65 13.09 24.41 13.41 25.19 13.41L31.12 13.41L22.23 4.47L22.23 10.43C22.23 11.22 22.54 11.97 23.1 12.53ZM13.77 22.78L7.84 28.74C7.7 28.88 7.6 29.04 7.52 29.22C7.45 29.4 7.41 29.6 7.41 29.79C7.41 29.99 7.45 30.18 7.52 30.36C7.6 30.54 7.7 30.71 7.84 30.85L13.77 36.8C14.05 37.08 14.43 37.24 14.82 37.24C15.21 37.24 15.59 37.08 15.87 36.8C16.15 36.52 16.3 36.15 16.3 35.75C16.3 35.35 16.15 34.98 15.87 34.7L10.99 29.79L15.87 24.89C16.01 24.75 16.12 24.59 16.19 24.4C16.27 24.22 16.3 24.03 16.3 23.83C16.3 23.64 16.27 23.44 16.19 23.26C16.12 23.08 16.01 22.92 15.87 22.78C15.73 22.64 15.57 22.53 15.39 22.46C15.21 22.38 15.02 22.34 14.82 22.34C14.63 22.34 14.43 22.38 14.25 22.46C14.07 22.53 13.91 22.64 13.77 22.78ZM21.8 22.78C21.66 22.64 21.5 22.53 21.32 22.46C21.14 22.38 20.94 22.34 20.75 22.34C20.55 22.34 20.36 22.38 20.18 22.46C20 22.53 19.84 22.64 19.7 22.78C19.56 22.92 19.45 23.08 19.38 23.26C19.3 23.44 19.26 23.64 19.26 23.83C19.26 24.03 19.3 24.22 19.38 24.4C19.45 24.59 19.56 24.75 19.7 24.89L24.58 29.79L19.7 34.7C19.42 34.98 19.26 35.35 19.26 35.75C19.26 36.15 19.42 36.52 19.7 36.8C19.98 37.08 20.35 37.24 20.75 37.24C21.14 37.24 21.52 37.08 21.8 36.8L27.73 30.85C27.86 30.71 27.97 30.54 28.05 30.36C28.12 30.18 28.16 29.99 28.16 29.79C28.16 29.6 28.12 29.4 28.05 29.22C27.97 29.04 27.86 28.88 27.73 28.74L21.8 22.78Z" /></svg>