<svg xmlns="http://www.w3.org/2000/svg" viewBox="0 0 102 83" width="80" height="65">
	<style>
		tspan { white-space:pre }
		.shp0 { fill: #75cb43;stroke: #ffffff;stroke-width: 2 } 
		.shp1 { fill: #ffffff } 
	</style>
	<path id="Layer" class="shp0" d="M1 1L101 1L101 82L1 82L1 1Z" />
	<path id="Layer" fill-rule="evenodd" class="shp1" d="M76 18.96L76 64.04C76 65.12 75.11 66 74 66L28 66C26.89 66 26 65.12 26 64.04L26 18.96C26 17.88 26.89 17 28 17L74 17C75.11 17 76 17.88 76 18.96ZM66.22 50.15L66.22 32.91L59.34 29.02L59.36 29L59.38 29L51 24.29L42.63 29L42.62 29L42.64 29.02L35.77 32.91L35.77 50.15L51 58.77L66.23 50.15L66.22 50.15ZM38.24 35.77L49.76 42.28L49.76 55.28L43.72 51.85L43.72 46.07L38.24 43.01L38.24 35.77ZM52.24 42.3L63.76 35.77L63.76 43.04L58.32 46.07L58.32 51.83L52.24 55.28L52.24 42.3ZM56.87 30.41L62.58 33.64L51.01 40.19L39.43 33.64L45.13 30.41L50.99 33.72L56.87 30.41Z" />
</svg>