<svg width="60" height="66" viewBox="0 0 60 66" fill="none" xmlns="http://www.w3.org/2000/svg">
<path d="M59.399 62.069L50.9014 52.4762L51.5094 16.1285L47.5596 7.80283C47.2686 7.16824 46.825 6.63358 46.2767 6.25659C45.7284 5.87961 45.0963 5.67463 44.4487 5.6638C43.801 5.65296 43.1624 5.83669 42.6018 6.19513C42.0412 6.55357 41.58 7.07309 41.2679 7.6976L37.2904 15.9102L36.9427 36.6998L5.0296 0.62829C4.78561 0.348832 4.47114 0.155768 4.12629 0.0737111C3.78143 -0.00834528 3.42182 0.0243242 3.09329 0.167554C2.76476 0.310785 2.48221 0.558086 2.28165 0.877929C2.0811 1.19777 1.97162 1.57567 1.96719 1.96343L1.70338 17.7362L5.56018 17.8007L5.50794 20.9241L1.65114 20.8596L1.44217 33.3529L5.29898 33.4174L5.24674 36.5407L1.38993 36.4762L1.17281 49.4575L5.02961 49.522L4.97737 52.6453L1.12057 52.5808L0.955031 62.4779C0.946371 62.9956 1.12532 63.4952 1.45251 63.8669C1.7797 64.2386 2.22833 64.4518 2.69971 64.4597L58.0813 65.386C58.4342 65.3941 58.7818 65.2867 59.0795 65.0772C59.3773 64.8678 59.6118 64.5659 59.7532 64.2101C59.8945 63.8543 59.9363 63.4606 59.8733 63.0793C59.8102 62.698 59.6451 62.3463 59.399 62.069ZM15.3996 49.2073L15.6954 31.5215L31.52 49.4769L15.3996 49.2073ZM47.3226 53.8613L40.2133 53.7424L40.2926 48.9988L47.402 49.1177L47.3226 53.8613ZM47.4532 46.053L40.3439 45.9341L40.8291 16.9262L44.4002 9.62451L47.9381 17.0646L47.4532 46.053Z" fill="#CA3093"/>
</svg>
