<svg xmlns="http://www.w3.org/2000/svg" viewBox="0 0 102 83" width="80" height="65">
	<style>
		tspan { white-space:pre }
		.shp0 { fill: #b41afd;stroke: #ffffff;stroke-width: 2 } 
		.shp1 { fill: #ffffff } 
	</style>
	<path id="Layer" class="shp0" d="M1 1L101 1L101 82L1 82L1 1Z" />
	<path id="Layer" fill-rule="evenodd" class="shp1" d="M58.33 41.5L64.26 41.5C64.83 40.42 65.72 39.58 66.78 39.1C67.84 38.62 69.02 38.54 70.13 38.86C71.24 39.18 72.22 39.89 72.92 40.88C73.62 41.87 74 43.09 74 44.33C74 45.58 73.62 46.79 72.92 47.78C72.22 48.77 71.24 49.48 70.13 49.81C69.02 50.13 67.84 50.05 66.78 49.57C65.72 49.09 64.83 48.25 64.26 47.17L58.33 47.17L58.33 61.33C58.33 62.84 57.78 64.28 56.8 65.34C55.82 66.4 54.5 67 53.11 67L32.22 67C30.84 67 29.51 66.4 28.53 65.34C27.55 64.28 27 62.84 27 61.33L27 21.67C27 20.16 27.55 18.72 28.53 17.66C29.51 16.6 30.84 16 32.22 16L53.11 16C54.5 16 55.82 16.6 56.8 17.66C57.78 18.72 58.33 20.16 58.33 21.67L58.33 41.5ZM53.11 41.5L53.11 21.67L32.22 21.67L32.22 61.33L53.11 61.33L53.11 47.17L47.19 47.17C46.61 48.25 45.73 49.09 44.66 49.57C43.6 50.05 42.43 50.13 41.31 49.81C40.2 49.48 39.22 48.77 38.52 47.78C37.82 46.79 37.44 45.58 37.44 44.33C37.44 43.09 37.82 41.87 38.52 40.88C39.22 39.89 40.2 39.18 41.31 38.86C42.43 38.54 43.6 38.62 44.66 39.1C45.73 39.58 46.61 40.42 47.19 41.5L53.11 41.5Z" />
</svg>