<svg xmlns="http://www.w3.org/2000/svg" viewBox="0 0 94 71" width="87" height="66">
	<style>
		tspan { white-space:pre }
		.shp0 { fill: #21a2f5 } 
	</style>
	<path id="Layer" fill-rule="evenodd" class="shp0" d="M93.47 51.38C93.89 51.65 94.1 52.2 93.95 52.72C92.97 56.15 91.28 59.25 89.07 61.82C88.74 62.22 88.18 62.31 87.75 62.04L83.96 59.68C82.36 61.16 80.53 62.3 78.54 63.06L78.54 67.78C78.54 68.32 78.19 68.8 77.71 68.91C74.59 69.67 71.26 69.7 67.98 68.91C67.5 68.8 67.14 68.32 67.14 67.78L67.14 63.06C65.16 62.3 63.32 61.16 61.72 59.68L57.93 62.04C57.49 62.31 56.95 62.22 56.61 61.82C54.41 59.24 52.72 56.15 51.73 52.72C51.59 52.2 51.78 51.65 52.22 51.38L56.01 49.01C55.63 46.78 55.63 44.5 56.01 42.26L52.22 39.9C51.79 39.63 51.59 39.07 51.73 38.55C52.72 35.13 54.41 32.02 56.61 29.45C56.95 29.06 57.51 28.96 57.93 29.23L61.72 31.59C63.32 30.12 65.16 28.98 67.14 28.22L67.14 23.49C67.14 22.95 67.5 22.48 67.98 22.37C71.09 21.61 74.43 21.57 77.71 22.37C78.19 22.48 78.54 22.95 78.54 23.49L78.54 28.22C80.53 28.98 82.36 30.12 83.96 31.59L87.75 29.23C88.19 28.96 88.74 29.06 89.07 29.45C91.28 32.02 92.97 35.13 93.95 38.55C94.1 39.07 93.91 39.63 93.47 39.9L89.68 42.26C90.06 44.5 90.06 46.78 89.68 49.01L93.47 51.38ZM79.98 45.64C79.98 41.4 76.78 37.95 72.86 37.95C68.94 37.95 65.73 41.4 65.73 45.64C65.73 49.87 68.92 53.33 72.86 53.33C76.79 53.33 79.98 49.87 79.98 45.64ZM4.7 20.27C4.7 14.68 8.92 10.13 14.1 10.13C19.29 10.13 23.5 14.68 23.5 20.27C23.5 25.87 19.29 30.42 14.1 30.42C8.92 30.42 4.7 25.87 4.7 20.27ZM30.55 17.74C30.55 7.93 37.9 0 46.99 0C56.08 0 63.44 7.94 63.44 17.75C63.44 20.48 62.83 23.05 61.8 25.36C61.68 25.44 61.56 25.51 61.44 25.58L60.28 24.86C59.42 24.3 58.42 24.02 57.4 24.02C55.79 24.02 54.25 24.74 53.16 26.01C50.84 28.72 49.05 31.96 47.83 35.4C47.55 35.41 47.28 35.49 47.01 35.49C37.91 35.49 30.55 27.55 30.55 17.74ZM62.46 67.78C62.46 68.97 62.83 70.05 63.37 71L25.85 71C21.96 71 18.8 67.59 18.8 63.39L18.8 58.83C18.8 48.74 26.38 40.56 35.74 40.56L36.96 40.56C40.03 42.15 43.41 43.1 47.02 43.1C47.5 43.1 47.97 43.04 48.46 43.01C48.87 43.5 49.34 43.94 49.9 44.29L51.06 45.02C51.04 45.43 51.04 45.84 51.06 46.26C50.93 46.35 45.7 48.76 47.27 54.23C48.43 58.3 50.49 62.12 53.17 65.26C54.28 66.53 55.82 67.26 57.42 67.26C59.21 67.26 60.25 66.47 61.46 65.71C61.78 65.91 62.12 66.13 62.46 66.32L62.46 67.78ZM25.43 38.44C19.51 41.94 15.31 48.27 14.38 55.78L4.7 55.78C2.1 55.78 0 53.52 0 50.71L0 45.64C0 40.04 4.22 35.49 9.4 35.49L18.8 35.49C21.39 35.49 23.72 36.62 25.43 38.44Z" />
</svg>