<svg xmlns="http://www.w3.org/2000/svg" viewBox="0 0 66 64" width="60" height="58">
	<style>
		tspan { white-space:pre }
		.shp0 { fill: #53a03c } 
	</style>
	<path id="Layer" fill-rule="evenodd" class="shp0" d="M66 2.56L66 61.44C66 62.86 64.82 64 63.36 64L2.64 64C1.18 64 0 62.86 0 61.44L0 2.56C0 1.14 1.18 0 2.64 0L63.36 0C64.82 0 66 1.14 66 2.56ZM53.1 43.3L53.1 20.78L44.01 15.7L44.04 15.68L44.05 15.68L33 9.52L21.95 15.68L21.94 15.68L21.97 15.7L12.89 20.78L12.89 43.3L33 54.56L53.11 43.3L53.1 43.3ZM16.16 24.51L31.37 33.02L31.37 49.99L23.39 45.52L23.39 37.97L16.16 33.98L16.16 24.51ZM34.63 33.04L49.84 24.52L49.84 34.01L42.66 37.97L42.66 45.5L34.63 49.99L34.63 33.04ZM40.75 17.51L48.29 21.74L33.01 30.29L17.73 21.73L25.25 17.52L32.98 21.83L40.75 17.51Z" />
</svg>