<svg xmlns="http://www.w3.org/2000/svg" viewBox="0 0 102 83" width="80" height="65">
	<style>
		tspan { white-space:pre }
		.shp0 { fill: #ee3e0f } 
		.shp1 { fill: none;stroke: #ffffff } 
		.shp2 { fill: #ffffff } 
	</style>
	<path id="Layer" class="shp0" d="M0 0L102 0L102 83L0 83L0 0Z" />
	<path id="Layer" class="shp1" d="M0 0L102 0L102 83L0 83L0 0Z" />
	<path id="Layer" fill-rule="evenodd" class="shp2" d="M72.6 64.36C72.79 64.57 72.92 64.85 72.97 65.15C73.03 65.45 73 65.76 72.9 66.05C72.79 66.33 72.62 66.57 72.39 66.74C72.17 66.91 71.9 67 71.64 67L29.36 67C29 67 28.65 66.84 28.4 66.55C28.14 66.26 28 65.86 28 65.45L28 57.62L30.94 57.62L30.94 55.15L28 55.15L28 44.87L30.94 44.87L30.94 42.4L28 42.4L28 32.51L30.94 32.51L30.94 30.04L28 30.04L28 17.55C28 17.25 28.08 16.95 28.23 16.69C28.38 16.44 28.59 16.24 28.84 16.12C29.09 16 29.36 15.97 29.62 16.03C29.89 16.09 30.13 16.24 30.32 16.46L55.14 44.58L55.14 28.12L58.07 21.57C58.3 21.07 58.64 20.66 59.07 20.36C59.49 20.07 59.97 19.92 60.47 19.92C60.96 19.92 61.45 20.07 61.87 20.36C62.29 20.66 62.64 21.07 62.87 21.57L65.99 28.11L65.99 56.88L72.6 64.36ZM51.16 54.76L38.85 40.76L38.85 54.76L51.16 54.76ZM63.28 54.27L57.85 54.27L57.85 58.02L63.28 58.02L63.28 54.27ZM63.28 28.9L60.48 23.05L57.85 28.88L57.85 51.84L63.28 51.84L63.28 28.9Z" />
</svg>