<svg xmlns="http://www.w3.org/2000/svg" viewBox="0 0 102 83" width="80" height="65">
	<style>
		tspan { white-space:pre }
		.shp0 { fill: #ffd426;stroke: #ffffff;stroke-width: 2 } 
		.shp1 { fill: #ffffff } 
	</style>
	<path id="Layer" class="shp0" d="M1 1L101 1L101 82L1 82L1 1Z" />
	<path id="Layer" fill-rule="evenodd" class="shp1" d="M80.66 51.56C80.93 51.73 81.06 52.08 80.97 52.42C80.34 54.59 79.26 56.56 77.86 58.18C77.64 58.43 77.28 58.49 77.01 58.32L74.59 56.83C73.57 57.76 72.4 58.48 71.13 58.97L71.13 61.96C71.13 62.3 70.91 62.6 70.6 62.67C68.61 63.16 66.48 63.18 64.39 62.67C64.08 62.6 63.86 62.3 63.86 61.96L63.86 58.97C62.59 58.48 61.42 57.76 60.4 56.83L57.98 58.32C57.7 58.49 57.35 58.43 57.14 58.18C55.73 56.55 54.65 54.59 54.02 52.42C53.93 52.08 54.05 51.73 54.33 51.56L56.75 50.06C56.51 48.65 56.51 47.2 56.75 45.78L54.33 44.29C54.06 44.12 53.93 43.77 54.02 43.43C54.65 41.26 55.73 39.29 57.14 37.67C57.35 37.42 57.71 37.36 57.98 37.53L60.4 39.02C61.42 38.09 62.59 37.37 63.86 36.88L63.86 33.89C63.86 33.55 64.08 33.25 64.39 33.18C66.38 32.69 68.51 32.67 70.6 33.18C70.91 33.25 71.13 33.55 71.13 33.89L71.13 36.88C72.4 37.37 73.57 38.09 74.59 39.02L77.01 37.53C77.29 37.36 77.64 37.42 77.86 37.67C79.26 39.29 80.34 41.26 80.97 43.43C81.06 43.77 80.94 44.12 80.66 44.29L78.24 45.78C78.48 47.2 78.48 48.65 78.24 50.06L80.66 51.56ZM72.05 47.92C72.05 45.24 70.01 43.05 67.5 43.05C65 43.05 62.96 45.24 62.96 47.92C62.96 50.61 64.99 52.8 67.5 52.8C70.02 52.8 72.05 50.61 72.05 47.92ZM24 31.85C24 28.3 26.69 25.42 30 25.42C33.31 25.42 36 28.3 36 31.85C36 35.4 33.31 38.28 30 38.28C26.69 38.28 24 35.4 24 31.85ZM40.5 30.24C40.5 24.02 45.19 19 50.99 19C56.8 19 61.49 24.03 61.49 30.25C61.49 31.98 61.1 33.61 60.44 35.08C60.37 35.13 60.29 35.17 60.22 35.22L59.48 34.75C58.93 34.4 58.29 34.22 57.64 34.22C56.61 34.22 55.63 34.68 54.93 35.49C53.45 37.2 52.31 39.25 51.53 41.43C51.35 41.44 51.18 41.49 51 41.49C45.2 41.49 40.5 36.46 40.5 30.24ZM60.87 61.96C60.87 62.71 61.1 63.4 61.45 64L37.5 64C35.02 64 33 61.84 33 59.18L33 56.28C33 49.89 37.84 44.71 43.81 44.71L44.59 44.71C46.55 45.71 48.71 46.32 51.01 46.32C51.32 46.32 51.62 46.28 51.93 46.26C52.19 46.57 52.49 46.85 52.85 47.07L53.59 47.53C53.58 47.79 53.58 48.06 53.59 48.32C53.51 48.38 50.17 49.9 51.17 53.37C51.91 55.95 53.23 58.37 54.94 60.36C55.64 61.17 56.63 61.63 57.65 61.63C58.79 61.63 59.46 61.13 60.23 60.64C60.44 60.77 60.65 60.92 60.87 61.04L60.87 61.96ZM37.23 43.36C33.45 45.58 30.77 49.59 30.18 54.35L24 54.35C22.34 54.35 21 52.92 21 51.14L21 47.92C21 44.38 23.69 41.49 27 41.49L33 41.49C34.65 41.49 36.14 42.21 37.23 43.36Z" />
</svg>