<svg xmlns="http://www.w3.org/2000/svg" viewBox="0 0 67 72" width="61" height="66">
	<style>
		tspan { white-space:pre }
		.shp0 { fill: #fb8500 } 
	</style>
	<path id="Layer" fill-rule="evenodd" class="shp0" d="M44.67 36L53.11 36C53.93 34.47 55.19 33.28 56.71 32.61C58.22 31.93 59.9 31.82 61.48 32.27C63.07 32.73 64.46 33.73 65.46 35.13C66.46 36.53 67 38.24 67 40C67 41.76 66.46 43.47 65.46 44.87C64.46 46.27 63.07 47.27 61.48 47.73C59.9 48.18 58.22 48.06 56.71 47.39C55.19 46.72 53.93 45.53 53.11 44L44.67 44L44.67 64C44.67 66.12 43.88 68.16 42.49 69.66C41.09 71.16 39.2 72 37.22 72L7.44 72C5.47 72 3.58 71.16 2.18 69.66C0.78 68.16 0 66.12 0 64L0 8C0 5.88 0.78 3.84 2.18 2.34C3.58 0.84 5.47 0 7.44 0L37.22 0C39.2 0 41.09 0.84 42.49 2.34C43.88 3.84 44.67 5.88 44.67 8L44.67 36ZM37.22 36L37.22 8L7.44 8L7.44 64L37.22 64L37.22 44L28.78 44C27.96 45.53 26.7 46.72 25.18 47.39C23.67 48.06 21.99 48.18 20.41 47.73C18.82 47.27 17.42 46.27 16.43 44.87C15.43 43.47 14.89 41.76 14.89 40C14.89 38.24 15.43 36.53 16.43 35.13C17.42 33.73 18.82 32.73 20.41 32.27C21.99 31.82 23.67 31.93 25.18 32.61C26.7 33.28 27.96 34.47 28.78 36L37.22 36Z" />
</svg>