<svg xmlns="http://www.w3.org/2000/svg" viewBox="0 0 102 83" width="80" height="65">
	<style>
		tspan { white-space:pre }
		.shp0 { fill: #1cb6f9;stroke: #ffffff;stroke-width: 2 } 
		.shp1 { fill: #ffffff } 
	</style>
	<path id="Layer" class="shp0" d="M1 1L101 1L101 82L1 82L1 1Z" />
	<path id="Layer" fill-rule="evenodd" class="shp1" d="M56.71 18.87L67.7 29.92C68.26 30.48 68.57 31.23 68.57 32.02L68.57 59.71C68.57 61.29 67.94 62.8 66.83 63.92C65.72 65.04 64.21 65.67 62.64 65.67L38.93 65.67C37.36 65.67 35.85 65.04 34.74 63.92C33.62 62.8 33 61.29 33 59.71L33 23.96C33 22.38 33.62 20.86 34.74 19.75C35.85 18.63 37.36 18 38.93 18L54.62 18C55.4 18 56.16 18.31 56.71 18.87ZM56.1 30.53C56.65 31.09 57.41 31.41 58.19 31.41L64.12 31.41L55.23 22.47L55.23 28.43C55.23 29.22 55.54 29.98 56.1 30.53ZM40.84 46.74C40.7 46.88 40.6 47.04 40.52 47.22C40.45 47.4 40.41 47.6 40.41 47.79C40.41 47.99 40.45 48.18 40.52 48.36C40.6 48.54 40.7 48.71 40.84 48.85L46.77 54.8C47.05 55.08 47.43 55.24 47.82 55.24C48.21 55.24 48.59 55.08 48.87 54.8C49.15 54.52 49.3 54.15 49.3 53.75C49.3 53.35 49.15 52.98 48.87 52.7L43.99 47.79L48.87 42.89C49.01 42.75 49.12 42.59 49.19 42.4C49.27 42.22 49.3 42.03 49.3 41.83C49.3 41.64 49.27 41.44 49.19 41.26C49.12 41.08 49.01 40.92 48.87 40.78C48.73 40.64 48.57 40.53 48.39 40.46C48.21 40.38 48.02 40.34 47.82 40.34C47.63 40.34 47.43 40.38 47.25 40.46C47.07 40.53 46.91 40.64 46.77 40.78L40.84 46.74ZM54.32 40.46C54.14 40.38 53.94 40.34 53.75 40.34C53.55 40.34 53.36 40.38 53.18 40.46C53 40.53 52.84 40.64 52.7 40.78C52.56 40.92 52.45 41.08 52.38 41.26C52.3 41.44 52.26 41.64 52.26 41.83C52.26 42.03 52.3 42.22 52.38 42.4C52.45 42.59 52.56 42.75 52.7 42.89L57.58 47.79L52.7 52.7C52.42 52.98 52.26 53.35 52.26 53.75C52.26 54.15 52.42 54.52 52.7 54.8C52.98 55.08 53.35 55.24 53.75 55.24C54.14 55.24 54.52 55.08 54.8 54.8L60.73 48.85C60.86 48.71 60.97 48.54 61.05 48.36C61.12 48.18 61.16 47.99 61.16 47.79C61.16 47.6 61.12 47.4 61.05 47.22C60.97 47.04 60.86 46.88 60.73 46.74L54.8 40.78C54.66 40.64 54.5 40.53 54.32 40.46Z" />
</svg>