<svg xmlns="http://www.w3.org/2000/svg" viewBox="0 0 50 67" width="49" height="66">
	<style>
		tspan { white-space:pre }
		.shp0 { fill: #1378ac } 
	</style>
	<path id="Layer" fill-rule="evenodd" class="shp0" d="M30.39 0C31.49 0 32.55 0.44 33.33 1.22L48.78 16.67C49.56 17.45 50 18.51 50 19.61L50 58.33C50 60.54 49.12 62.66 47.56 64.23C46 65.79 43.88 66.67 41.67 66.67L8.33 66.67C6.12 66.67 4 65.79 2.44 64.23C0.88 62.66 0 60.54 0 58.33L0 8.33C0 6.12 0.88 4 2.44 2.44C4 0.88 6.12 0 8.33 0L30.39 0ZM32.47 17.53C33.25 18.31 34.31 18.75 35.42 18.75L43.75 18.75L31.25 6.25L31.25 14.58C31.25 15.69 31.69 16.75 32.47 17.53ZM19.36 31.86L11.03 40.19C10.83 40.39 10.68 40.62 10.57 40.87C10.47 41.12 10.41 41.39 10.41 41.67C10.41 41.94 10.47 42.21 10.57 42.47C10.68 42.72 10.83 42.95 11.03 43.14L19.36 51.48C19.75 51.87 20.28 52.09 20.83 52.09C21.39 52.09 21.92 51.87 22.31 51.48C22.7 51.08 22.92 50.55 22.92 50C22.92 49.45 22.7 48.92 22.31 48.52L15.45 41.67L22.31 34.81C22.5 34.61 22.66 34.38 22.76 34.13C22.87 33.88 22.92 33.61 22.92 33.33C22.92 33.06 22.87 32.79 22.76 32.54C22.66 32.28 22.5 32.05 22.31 31.86C22.11 31.66 21.88 31.51 21.63 31.41C21.38 31.3 21.11 31.25 20.83 31.25C20.56 31.25 20.29 31.3 20.04 31.41C19.78 31.51 19.55 31.66 19.36 31.86ZM30.64 31.86C30.45 31.66 30.22 31.51 29.96 31.41C29.71 31.3 29.44 31.25 29.17 31.25C28.89 31.25 28.62 31.3 28.37 31.41C28.12 31.51 27.89 31.66 27.69 31.86C27.5 32.05 27.34 32.28 27.24 32.54C27.13 32.79 27.08 33.06 27.08 33.33C27.08 33.61 27.13 33.88 27.24 34.13C27.34 34.38 27.5 34.61 27.69 34.81L34.55 41.67L27.69 48.52C27.3 48.92 27.08 49.45 27.08 50C27.08 50.55 27.3 51.08 27.69 51.48C28.08 51.87 28.61 52.09 29.17 52.09C29.72 52.09 30.25 51.87 30.64 51.48L38.98 43.14C39.17 42.95 39.32 42.72 39.43 42.47C39.53 42.21 39.59 41.94 39.59 41.67C39.59 41.39 39.53 41.12 39.43 40.87C39.32 40.62 39.17 40.39 38.98 40.19L30.64 31.86Z" />
</svg>