<svg width="80" height="80" viewBox="0 0 80 80" fill="none" xmlns="http://www.w3.org/2000/svg">
<path d="M56.1393 25.7143H23.8625L40 39.5464L56.1393 25.7143Z" fill="#2196F3"/>
<path d="M40 42.8571C39.6589 42.8571 39.3286 42.7357 39.0696 42.5125L21.4286 27.3911V54.2857H58.5714V27.3911L40.9303 42.5125C40.6714 42.7357 40.3411 42.8571 40 42.8571Z" fill="#2196F3"/>
<path fill-rule="evenodd" clip-rule="evenodd" d="M80 40C80 62.0911 62.0911 80 40 80C17.9089 80 0 62.0911 0 40C0 17.9089 17.9089 0 40 0C62.0804 0.025 79.975 17.9196 80 40ZM61.4286 24.2857C61.4286 23.4964 60.7893 22.8571 60 22.8571H20C19.2107 22.8571 18.5714 23.4964 18.5714 24.2857V55.7143C18.5714 56.5036 19.2107 57.1429 20 57.1429H60C60.7893 57.1429 61.4286 56.5036 61.4286 55.7143V24.2857Z" fill="#2196F3"/>
</svg>
