<svg width="80" height="74" viewBox="0 0 80 74" fill="none" xmlns="http://www.w3.org/2000/svg">
<rect width="80" height="74" fill="#E9EDEE" fill-opacity="0.61"/>
<path d="M40 12C30.6092 12 23 18.8306 23 27.2914C23 41.9209 40 61 40 61C40 61 57 41.9179 57 27.2914C57 18.8336 49.3908 12 40 12V12ZM40 35.7523C37.5653 35.7523 35.2303 34.8806 33.5088 33.3289C31.7872 31.7772 30.82 29.6727 30.82 27.4784C30.82 25.284 31.7872 23.1795 33.5088 21.6278C35.2303 20.0762 37.5653 19.2044 40 19.2044C42.4347 19.2044 44.7697 20.0762 46.4912 21.6278C48.2128 23.1795 49.18 25.284 49.18 27.4784C49.18 29.6727 48.2128 31.7772 46.4912 33.3289C44.7697 34.8806 42.4347 35.7523 40 35.7523Z" fill="#07659D"/>
</svg>
