<svg width="71" height="80" viewBox="0 0 71 80" fill="none" xmlns="http://www.w3.org/2000/svg">
<path d="M35.3816 56.5166C23.6071 56.5166 14.09 46.9996 14.09 35.2251C14.09 23.4505 23.6071 13.9335 35.3816 13.9335C47.1562 13.9335 56.6732 23.4505 56.6732 35.2251C56.6732 46.9996 47.1562 56.5166 35.3816 56.5166Z" fill="#2196F3"/>
<path fill-rule="evenodd" clip-rule="evenodd" d="M60.4008 10.3624C67.0826 17.0458 70.7632 25.9303 70.7632 35.3816C70.7632 52.0548 59.1076 66.4485 42.9135 69.9569L35.3816 80L27.8497 69.9569C11.6556 66.4485 0 52.0548 0 35.3816C0 25.9303 3.68063 17.0458 10.3624 10.3624C17.0458 3.68063 25.9303 0 35.3816 0C44.8329 0 53.7174 3.68063 60.4008 10.3624ZM35.3816 9.23679C21.0521 9.23679 9.39335 20.8955 9.39335 35.225C9.39335 49.5546 21.0521 61.2133 35.3816 61.2133C49.7112 61.2133 61.3699 49.5546 61.3699 35.225C61.3699 20.8955 49.7112 9.23679 35.3816 9.23679Z" fill="#2196F3"/>
</svg>
