<svg width="80" height="74" viewBox="0 0 80 74" fill="none" xmlns="http://www.w3.org/2000/svg">
<rect width="80" height="74" fill="#E5E5E5"/>
<rect width="80" height="74" fill="#E9EDEE" fill-opacity="0.61"/>
<path d="M57.3385 35H62C62 23.0287 52.973 14 41 14V18.6672C50.4675 18.6672 57.3385 25.5349 57.3385 35Z" fill="#07659D"/>
<path d="M41.1398 27.6214C46.2163 27.6214 48.3815 29.7865 48.3815 34.8626H53.2094C53.2094 27.0783 48.9247 22.7939 41.1398 22.7939V27.6214ZM49.4002 40.7594C48.9364 40.3378 48.3268 40.113 47.7003 40.1324C47.0738 40.1517 46.4794 40.4138 46.0425 40.8632L40.266 46.8034C38.8755 46.5379 36.0802 45.6665 33.2029 42.7966C30.3255 39.917 29.4541 37.1146 29.1958 35.734L35.1316 29.9555C35.5816 29.5189 35.844 28.9244 35.8634 28.2978C35.8827 27.6711 35.6575 27.0615 35.2354 26.598L26.316 16.791C25.8936 16.326 25.3067 16.0439 24.6797 16.0047C24.0527 15.9655 23.4352 16.1722 22.9582 16.581L17.72 21.0729C17.3027 21.4918 17.0536 22.0492 17.02 22.6394C16.9838 23.2429 16.2934 37.537 27.3781 48.6258C37.0482 58.2928 49.1612 59 52.4973 59C52.9849 59 53.2842 58.9855 53.3638 58.9807C53.9541 58.9477 54.5112 58.6975 54.9281 58.2783L59.4179 53.0381C59.827 52.5614 60.0342 51.9441 59.9954 51.3172C59.9566 50.6903 59.675 50.1032 59.2103 49.6806L49.4002 40.7594V40.7594Z" fill="#07659D"/>
</svg>
