<svg xmlns="http://www.w3.org/2000/svg" viewBox="0 0 512 512" width="80" height="80">
	<style>
		tspan { white-space:pre }
		.shp0 { fill: #2196f3 } 
		.shp1 { fill: #fafafa } 
	</style>
	<path id="Layer" class="shp0" d="M256 512C114.43 512 0 397.57 0 256C0 114.43 114.43 0 256 0C397.57 0 512 114.43 512 256C512 397.57 397.57 512 256 512Z" />
	<path id="Layer" class="shp1" d="M384 308.93C356.38 308.93 330.05 302.91 305.76 291.04C301.95 289.22 297.54 288.93 293.5 290.3C289.47 291.71 286.18 294.66 284.32 298.46L272.8 322.3C238.24 302.46 209.57 273.76 189.7 239.2L213.57 227.68C217.41 225.82 220.32 222.53 221.73 218.5C223.1 214.46 222.85 210.05 220.99 206.24C209.09 181.98 203.07 155.65 203.07 128C203.07 119.17 195.9 112 187.07 112L128 112C119.17 112 112 119.17 112 128C112 277.98 234.02 400 384 400C392.83 400 400 392.83 400 384L400 324.93C400 316.1 392.83 308.93 384 308.93Z" />
	<g id="Layer">
	</g>
	<g id="Layer">
	</g>
	<g id="Layer">
	</g>
	<g id="Layer">
	</g>
	<g id="Layer">
	</g>
	<g id="Layer">
	</g>
	<g id="Layer">
	</g>
	<g id="Layer">
	</g>
	<g id="Layer">
	</g>
	<g id="Layer">
	</g>
	<g id="Layer">
	</g>
	<g id="Layer">
	</g>
	<g id="Layer">
	</g>
	<g id="Layer">
	</g>
	<g id="Layer">
	</g>
</svg>