<svg width="111" height="111" viewBox="0 0 111 111" fill="none" xmlns="http://www.w3.org/2000/svg">
<circle cx="55.5" cy="55.5" r="55.5" fill="#FF6526"/>
<path d="M56.7139 41.0322H59.8325C59.9349 41.0325 60.0363 41.0126 60.131 40.9736C60.2257 40.9346 60.3117 40.8773 60.3842 40.805C60.4567 40.7327 60.5142 40.6468 60.5535 40.5522C60.5927 40.4576 60.6129 40.3562 60.6129 40.2538V37.1352C60.6129 36.9283 60.5307 36.7298 60.3843 36.5834C60.238 36.437 60.0395 36.3548 59.8325 36.3548H56.7139C56.6115 36.3548 56.5101 36.375 56.4155 36.4143C56.321 36.4535 56.2351 36.511 56.1628 36.5835C56.0905 36.656 56.0332 36.7421 55.9942 36.8367C55.9552 36.9314 55.9352 37.0328 55.9355 37.1352V40.2538C55.9355 40.684 56.2838 41.0322 56.7139 41.0322Z" fill="white"/>
<path d="M63.2623 41.0322H66.3809C66.4833 41.0325 66.5847 41.0126 66.6794 40.9736C66.7741 40.9346 66.8601 40.8773 66.9326 40.805C67.0051 40.7327 67.0626 40.6468 67.1019 40.5522C67.1411 40.4576 67.1613 40.3562 67.1613 40.2538V37.1352C67.1613 36.9283 67.0791 36.7298 66.9327 36.5834C66.7864 36.437 66.5879 36.3548 66.3809 36.3548H63.2623C63.1599 36.3548 63.0585 36.375 62.964 36.4143C62.8694 36.4535 62.7835 36.511 62.7112 36.5835C62.6389 36.656 62.5816 36.7421 62.5426 36.8367C62.5036 36.9314 62.4836 37.0328 62.4839 37.1352V40.2538C62.4839 40.684 62.8332 41.0322 63.2623 41.0322Z" fill="white"/>
<path d="M69.655 41.0322H72.1499C72.2318 41.0325 72.3129 41.0126 72.3887 40.9736C72.4644 40.9346 72.5332 40.8773 72.5912 40.805C72.6492 40.7327 72.6952 40.6468 72.7266 40.5522C72.758 40.4576 72.7742 40.3562 72.7742 40.2538V37.1352C72.7742 36.9283 72.7084 36.7298 72.5913 36.5834C72.4743 36.437 72.3155 36.3548 72.1499 36.3548H69.655C69.5731 36.3548 69.492 36.375 69.4163 36.4143C69.3407 36.4535 69.2719 36.511 69.2141 36.5835C69.1562 36.656 69.1104 36.7421 69.0792 36.8367C69.048 36.9314 69.032 37.0328 69.0323 37.1352V40.2538C69.0323 40.684 69.3109 41.0322 69.655 41.0322Z" fill="white"/>
<path d="M75.4236 41.0322H78.5422C78.6446 41.0325 78.746 41.0126 78.8407 40.9736C78.9354 40.9346 79.0214 40.8773 79.0939 40.805C79.1664 40.7327 79.2239 40.6468 79.2631 40.5522C79.3024 40.4576 79.3226 40.3562 79.3226 40.2538V37.1352C79.3226 36.9283 79.2404 36.7298 79.094 36.5834C78.9477 36.437 78.7492 36.3548 78.5422 36.3548H75.4236C75.3212 36.3548 75.2198 36.375 75.1252 36.4143C75.0307 36.4535 74.9448 36.511 74.8725 36.5835C74.8002 36.656 74.7429 36.7421 74.7039 36.8367C74.6649 36.9314 74.6449 37.0328 74.6452 37.1352V40.2538C74.6452 40.684 74.9945 41.0322 75.4236 41.0322Z" fill="white"/>
<path d="M59.8325 70.9677H56.7139C56.6115 70.9677 56.5101 70.9879 56.4155 71.0272C56.321 71.0664 56.2351 71.1239 56.1628 71.1964C56.0905 71.2689 56.0332 71.3549 55.9942 71.4496C55.9552 71.5443 55.9352 71.6457 55.9355 71.7481V74.8667C55.9355 75.2968 56.2848 75.6451 56.7139 75.6451H59.8325C59.9349 75.6454 60.0363 75.6255 60.131 75.5864C60.2257 75.5474 60.3117 75.4902 60.3842 75.4178C60.4567 75.3455 60.5142 75.2596 60.5535 75.1651C60.5927 75.0705 60.6129 74.9691 60.6129 74.8667V71.7481C60.613 71.6456 60.5929 71.5441 60.5538 71.4493C60.5146 71.3546 60.4571 71.2685 60.3846 71.196C60.3121 71.1235 60.226 71.066 60.1313 71.0268C60.0366 70.9877 59.935 70.9676 59.8325 70.9677" fill="white"/>
<path d="M63.2623 75.6451H66.3809C66.4833 75.6454 66.5847 75.6255 66.6794 75.5864C66.7741 75.5474 66.8601 75.4902 66.9326 75.4178C67.0051 75.3455 67.0626 75.2596 67.1019 75.1651C67.1411 75.0705 67.1613 74.9691 67.1613 74.8667V71.7481C67.1614 71.6456 67.1413 71.5441 67.1022 71.4493C67.063 71.3546 67.0055 71.2685 66.933 71.196C66.8605 71.1235 66.7744 71.066 66.6797 71.0268C66.585 70.9877 66.4834 70.9676 66.3809 70.9677H63.2623C63.1599 70.9677 63.0585 70.9879 62.964 71.0272C62.8694 71.0664 62.7835 71.1239 62.7112 71.1964C62.6389 71.2689 62.5816 71.3549 62.5426 71.4496C62.5036 71.5443 62.4836 71.6457 62.4839 71.7481V74.8667C62.4839 75.2958 62.8332 75.6451 63.2623 75.6451Z" fill="white"/>
<path d="M69.655 75.6451H72.1499C72.2318 75.6454 72.3129 75.6255 72.3887 75.5864C72.4644 75.5474 72.5332 75.4902 72.5912 75.4178C72.6492 75.3455 72.6952 75.2596 72.7266 75.1651C72.758 75.0705 72.7742 74.9691 72.7742 74.8667V71.7481C72.7743 71.6456 72.7582 71.5441 72.7269 71.4493C72.6955 71.3546 72.6496 71.2685 72.5916 71.196C72.5336 71.1235 72.4647 71.066 72.3889 71.0268C72.3131 70.9877 72.2319 70.9676 72.1499 70.9677H69.655C69.5731 70.9677 69.492 70.9879 69.4163 71.0272C69.3407 71.0664 69.2719 71.1239 69.2141 71.1964C69.1562 71.2689 69.1104 71.3549 69.0792 71.4496C69.048 71.5443 69.032 71.6457 69.0323 71.7481V74.8667C69.0323 75.2958 69.3109 75.6451 69.655 75.6451Z" fill="white"/>
<path d="M75.4236 75.6451H78.5422C78.6446 75.6454 78.746 75.6255 78.8407 75.5864C78.9354 75.5474 79.0214 75.4902 79.0939 75.4178C79.1664 75.3455 79.2239 75.2596 79.2631 75.1651C79.3024 75.0705 79.3226 74.9691 79.3226 74.8667V71.7481C79.3227 71.6456 79.3026 71.5441 79.2635 71.4493C79.2243 71.3546 79.1668 71.2685 79.0943 71.196C79.0218 71.1235 78.9357 71.066 78.841 71.0268C78.7462 70.9877 78.6447 70.9676 78.5422 70.9677H75.4236C75.3212 70.9677 75.2198 70.9879 75.1252 71.0272C75.0307 71.0664 74.9448 71.1239 74.8725 71.1964C74.8002 71.2689 74.7429 71.3549 74.7039 71.4496C74.6649 71.5443 74.6449 71.6457 74.6452 71.7481V74.8667C74.6452 75.2958 74.9945 75.6451 75.4236 75.6451Z" fill="white"/>
<path d="M63.2623 58.8064H66.3809C66.4833 58.8067 66.5847 58.7868 66.6794 58.7478C66.7741 58.7088 66.8601 58.6515 66.9326 58.5792C67.0051 58.5069 67.0626 58.421 67.1019 58.3264C67.1411 58.2318 67.1613 58.1304 67.1613 58.028V54.9094C67.1614 54.8069 67.1413 54.7054 67.1022 54.6106C67.063 54.5159 67.0055 54.4298 66.933 54.3573C66.8605 54.2848 66.7744 54.2273 66.6797 54.1882C66.585 54.149 66.4834 54.1289 66.3809 54.129H63.2623C63.1599 54.129 63.0585 54.1492 62.964 54.1885C62.8694 54.2277 62.7835 54.2852 62.7112 54.3577C62.6389 54.4302 62.5816 54.5163 62.5426 54.6109C62.5036 54.7056 62.4836 54.807 62.4839 54.9094V58.028C62.4839 58.4582 62.8332 58.8064 63.2623 58.8064Z" fill="white"/>
<path d="M69.655 58.8064H72.1499C72.2318 58.8067 72.3129 58.7868 72.3887 58.7478C72.4644 58.7088 72.5332 58.6515 72.5912 58.5792C72.6492 58.5069 72.6952 58.421 72.7266 58.3264C72.758 58.2318 72.7742 58.1304 72.7742 58.028V54.9094C72.7743 54.8069 72.7582 54.7054 72.7269 54.6106C72.6955 54.5159 72.6496 54.4298 72.5916 54.3573C72.5336 54.2848 72.4647 54.2273 72.3889 54.1882C72.3131 54.149 72.2319 54.1289 72.1499 54.129H69.655C69.5731 54.129 69.492 54.1492 69.4163 54.1885C69.3407 54.2277 69.2719 54.2852 69.2141 54.3577C69.1562 54.4302 69.1104 54.5163 69.0792 54.6109C69.048 54.7056 69.032 54.807 69.0323 54.9094V58.028C69.0323 58.4582 69.3109 58.8064 69.655 58.8064Z" fill="white"/>
<path d="M56.7139 52.2581H59.8325C60.2646 52.2581 60.6129 51.9787 60.6129 51.6339V49.1403C60.6129 48.9748 60.5307 48.816 60.3843 48.699C60.238 48.5819 60.0395 48.5161 59.8325 48.5161H56.7139C56.6115 48.5161 56.5101 48.5323 56.4155 48.5637C56.321 48.5951 56.2351 48.6411 56.1628 48.6991C56.0905 48.757 56.0332 48.8259 55.9942 48.9016C55.9552 48.9773 55.9352 49.0584 55.9355 49.1403V51.6339C55.9352 51.7158 55.9552 51.7969 55.9942 51.8726C56.0332 51.9484 56.0905 52.0172 56.1628 52.0752C56.2351 52.1331 56.321 52.1791 56.4155 52.2105C56.5101 52.2419 56.6115 52.2581 56.7139 52.2581" fill="white"/>
<path d="M63.2623 52.2581H66.3809C66.813 52.2581 67.1613 51.9787 67.1613 51.6339V49.1403C67.1613 48.9748 67.0791 48.816 66.9327 48.699C66.7864 48.5819 66.5879 48.5161 66.3809 48.5161H63.2623C63.1599 48.5161 63.0585 48.5323 62.964 48.5637C62.8694 48.5951 62.7835 48.6411 62.7112 48.6991C62.6389 48.757 62.5816 48.8259 62.5426 48.9016C62.5036 48.9773 62.4836 49.0584 62.4839 49.1403V51.6339C62.4839 51.9795 62.8332 52.2581 63.2623 52.2581Z" fill="white"/>
<path d="M69.655 52.2581H72.1499C72.4956 52.2581 72.7742 51.9787 72.7742 51.6339V49.1403C72.7742 48.9748 72.7084 48.816 72.5913 48.699C72.4743 48.5819 72.3155 48.5161 72.1499 48.5161H69.655C69.5731 48.5161 69.492 48.5323 69.4163 48.5637C69.3407 48.5951 69.2719 48.6411 69.2141 48.6991C69.1562 48.757 69.1104 48.8259 69.0792 48.9016C69.048 48.9773 69.032 49.0584 69.0323 49.1403V51.6339C69.032 51.7158 69.048 51.7969 69.0792 51.8726C69.1104 51.9484 69.1562 52.0172 69.2141 52.0752C69.2719 52.1331 69.3407 52.1791 69.4163 52.2105C69.492 52.2419 69.5731 52.2581 69.655 52.2581" fill="white"/>
<path d="M75.4236 52.2581H78.5422C78.9743 52.2581 79.3226 51.9787 79.3226 51.6339V49.1403C79.3226 48.9748 79.2404 48.816 79.094 48.699C78.9477 48.5819 78.7492 48.5161 78.5422 48.5161H75.4236C75.3212 48.5161 75.2198 48.5323 75.1252 48.5637C75.0307 48.5951 74.9448 48.6411 74.8725 48.6991C74.8002 48.757 74.7429 48.8259 74.7039 48.9016C74.6649 48.9773 74.6449 49.0584 74.6452 49.1403V51.6339C74.6452 51.9795 74.9945 52.2581 75.4236 52.2581Z" fill="white"/>
<path d="M56.7139 46.6451H59.8325C60.2646 46.6451 60.6129 46.2958 60.6129 45.8647V42.7461C60.6129 42.317 60.2636 41.9677 59.8325 41.9677H56.7139C56.5074 41.9677 56.3095 42.0497 56.1635 42.1957C56.0175 42.3417 55.9355 42.5397 55.9355 42.7461V45.8647C55.9352 45.9671 55.9552 46.0686 55.9942 46.1632C56.0332 46.2579 56.0905 46.3439 56.1628 46.4164C56.2351 46.4889 56.321 46.5464 56.4155 46.5857C56.5101 46.6249 56.6115 46.6451 56.7139 46.6451" fill="white"/>
<path d="M63.2623 46.6451H66.3809C66.813 46.6451 67.1613 46.2958 67.1613 45.8647V42.7461C67.1613 42.317 66.812 41.9677 66.3809 41.9677H63.2623C63.0558 41.9677 62.8579 42.0497 62.7119 42.1957C62.5659 42.3417 62.4839 42.5397 62.4839 42.7461V45.8647C62.4839 46.2958 62.8332 46.6451 63.2623 46.6451Z" fill="white"/>
<path d="M69.655 46.6451H72.1499C72.4956 46.6451 72.7742 46.2958 72.7742 45.8647V42.7461C72.7742 42.317 72.4948 41.9677 72.1499 41.9677H69.655C69.4898 41.9677 69.3314 42.0497 69.2147 42.1957C69.0979 42.3417 69.0323 42.5397 69.0323 42.7461V45.8647C69.032 45.9671 69.048 46.0686 69.0792 46.1632C69.1104 46.2579 69.1562 46.3439 69.2141 46.4164C69.2719 46.4889 69.3407 46.5464 69.4163 46.5857C69.492 46.6249 69.5731 46.6451 69.655 46.6451" fill="white"/>
<path d="M75.4236 46.6451H78.5422C78.9743 46.6451 79.3226 46.2958 79.3226 45.8647V42.7461C79.3226 42.317 78.9733 41.9677 78.5422 41.9677H75.4236C75.2171 41.9677 75.0191 42.0497 74.8732 42.1957C74.7272 42.3417 74.6452 42.5397 74.6452 42.7461V45.8647C74.6452 46.2958 74.9945 46.6451 75.4236 46.6451Z" fill="white"/>
<path d="M80.1333 27H55.2417C53.3093 27 51.375 28.8715 51.376 30.742V48.75L41.342 38.716V46.8814H26V65.1195H41.342V73.284L51.376 63.249L51.375 81.258C51.375 83.1295 53.3093 85 55.2417 85H80.1333C82.0676 85 84 83.1285 84 81.258V30.742C84 28.8715 82.0676 27 80.1333 27ZM78.1082 30.1716C78.3485 30.1715 78.5791 30.2669 78.7491 30.4367C78.9192 30.6066 79.0148 30.837 79.0149 31.0774C79.015 31.3178 78.9197 31.5483 78.7498 31.7184C78.5799 31.8884 78.3495 31.984 78.1091 31.9841C77.8688 31.9843 77.6382 31.8889 77.4682 31.719C77.2981 31.5492 77.2025 31.3187 77.2024 31.0784C77.2023 30.838 77.2976 30.6075 77.4675 30.4374C77.6374 30.2674 77.8678 30.1718 78.1082 30.1716V30.1716ZM65.2399 30.6569H70.1351C70.2859 30.6569 70.4058 30.858 70.4058 31.1083C70.4058 31.3597 70.2859 31.5636 70.1351 31.5636H65.2399C65.091 31.5636 64.9692 31.3597 64.9692 31.1083C64.9692 30.8589 65.0901 30.6569 65.2399 30.6569ZM71.0863 81.6012C71.0863 81.6904 71.0687 81.7788 71.0346 81.8613C71.0004 81.9437 70.9504 82.0186 70.8873 82.0817C70.8242 82.1448 70.7492 82.1949 70.6668 82.229C70.5843 82.2632 70.496 82.2808 70.4067 82.2808H64.9692C64.88 82.2808 64.7916 82.2632 64.7092 82.229C64.6267 82.1949 64.5518 82.1448 64.4887 82.0817C64.4256 82.0186 64.3755 81.9437 64.3414 81.8613C64.3072 81.7788 64.2897 81.6904 64.2897 81.6012V80.2421C64.2897 79.867 64.5942 79.5625 64.9692 79.5625H70.4067C70.7818 79.5625 71.0863 79.867 71.0863 80.2421V81.6012ZM81.2817 77.75H54.0942V60.5317L56.3253 58.3007C56.3785 58.4157 56.4722 58.4921 56.6617 58.4921H59.6825C59.7817 58.4923 59.88 58.473 59.9717 58.4352C60.0634 58.3974 60.1467 58.3419 60.2169 58.2719C60.2872 58.2019 60.3429 58.1187 60.3809 58.0271C60.4189 57.9354 60.4385 57.8372 60.4385 57.7381V54.7172C60.4386 54.6179 60.4191 54.5196 60.3812 54.4278C60.3432 54.336 60.2876 54.2526 60.2173 54.1824C60.1471 54.1122 60.0637 54.0565 59.972 54.0186C59.8802 53.9806 59.7818 53.9612 59.6825 53.9613H56.6617C56.6366 53.9613 56.6259 53.9739 56.6018 53.9768L54.0942 51.4692V34.25H81.2817V77.75" fill="white"/>
</svg>
