<svg width="111" height="111" viewBox="0 0 111 111" fill="none" xmlns="http://www.w3.org/2000/svg">
<circle cx="55.5" cy="55.5" r="55.5" fill="#0B5886"/>
<path d="M74.9908 56.2076C80.3128 56.2076 84.6288 51.9087 84.6288 46.6038C84.6288 41.3002 80.3128 37 74.9908 37C69.6647 37 65.3481 41.3009 65.3481 46.6038C65.3474 51.9087 69.6647 56.2076 74.9908 56.2076Z" fill="white"/>
<path d="M53.2746 57.9862C58.0664 57.9862 61.9509 54.1161 61.9509 49.342C61.9509 44.568 58.0664 40.6978 53.2746 40.6978C48.4828 40.6978 44.5983 44.568 44.5983 49.342C44.5983 54.1161 48.4828 57.9862 53.2746 57.9862Z" fill="white"/>
<path d="M33.5821 59.5871C37.8939 59.5871 41.3909 56.1065 41.3909 51.8103C41.3909 47.5128 37.8939 44.0309 33.5821 44.0309C29.2689 44.0309 25.7732 47.5128 25.7732 51.8103C25.7732 56.1071 29.2682 59.5871 33.5821 59.5871V59.5871Z" fill="white"/>
<path d="M33.582 61.3636C28.6302 61.3636 25 65.7095 25 70.199V73.2213C25 73.6488 25.3497 73.9999 25.78 73.9999H41.382C41.8136 73.9999 42.1633 73.6488 42.1633 73.2213V70.199C42.1633 65.7095 38.5331 61.3636 33.582 61.3636Z" fill="white"/>
<path d="M53.2746 59.9572C47.7729 59.9572 43.7384 64.7867 43.7384 69.7761V73.1345C43.7384 73.6092 44.127 73.9999 44.6051 73.9999H61.9413C62.1711 74 62.3916 73.909 62.5544 73.7468C62.7171 73.5845 62.8089 73.3643 62.8094 73.1345V69.7761C62.8101 64.7874 58.7762 59.9572 53.2746 59.9572Z" fill="white"/>
<path d="M74.9894 58.3981C68.8765 58.3981 64.3946 63.7638 64.3946 69.3085V73.0391C64.3946 73.567 64.8263 74.0001 65.3576 74.0001H84.6185C85.1526 74.0001 85.5843 73.5663 85.5843 73.0391V69.3085C85.5843 63.7645 81.1024 58.3981 74.9894 58.3981V58.3981Z" fill="white"/>
</svg>
