<svg width="111" height="111" viewBox="0 0 111 111" fill="none" xmlns="http://www.w3.org/2000/svg">
<circle cx="55.5" cy="55.5" r="55.5" fill="#418C2A"/>
<path d="M72.1951 67.76C73.1707 66.08 73.9024 64.16 73.9024 62C73.9024 56 69.0244 51.2 62.9268 51.2C56.8293 51.2 51.9512 56 51.9512 62C51.9512 68 56.8293 72.8 62.9268 72.8C65.122 72.8 67.0732 72.08 68.7805 71.12L76.5854 78.8L80 75.44L72.1951 67.76V67.76ZM62.9268 68C59.5122 68 56.8293 65.36 56.8293 62C56.8293 58.64 59.5122 56 62.9268 56C66.3415 56 69.0244 58.64 69.0244 62C69.0244 65.36 66.3415 68 62.9268 68ZM54.3902 75.2V80C40.9268 80 30 69.248 30 56C30 42.752 40.9268 32 54.3902 32C66.1951 32 76.0244 40.256 78.2927 51.2H73.2439C72.4832 48.3004 71.0437 45.6161 69.0406 43.3616C67.0374 41.1072 64.5261 39.345 61.7073 38.216V39.2C61.7073 41.84 59.5122 44 56.8293 44H51.9512V48.8C51.9512 50.12 50.8537 51.2 49.5122 51.2H44.6341V56H49.5122V63.2H47.0732L35.3902 51.704C35.0732 53.096 34.878 54.512 34.878 56C34.878 66.584 43.6341 75.2 54.3902 75.2Z" fill="white"/>
</svg>
