<svg width="111" height="111" viewBox="0 0 111 111" fill="none" xmlns="http://www.w3.org/2000/svg">
<circle cx="55.5" cy="55.5" r="55.5" fill="#06B6C9"/>
<path d="M78.75 51.9267L74.2 42.4533C72.9 40.1667 70.625 38.5333 67.7 38.5333H65.75V34.2867C65.75 32.98 64.775 32 63.475 32H48.525C47.225 32 46.25 32.98 46.25 34.2867V38.5333H43.975C41.375 38.5333 38.775 40.1667 37.8 42.4533L33.25 51.9267C31.3 52.2533 30 53.8867 30 55.52V66.9533C30 68.9133 30 70.5467 33.25 70.8733V77.4067C33.25 79.3667 34.55 81 36.5 81H39.425C41.375 81 43 79.3667 43 77.4067V71.2H69V77.4067C69 79.3667 70.3 81 72.25 81H75.175C77.125 81 78.75 79.3667 78.75 77.4067V70.8733C82 70.5467 82 68.9133 82 66.9533V55.52C82 53.8867 80.7 52.2533 78.75 51.9267ZM43 59.44C43 60.42 42.025 61.4 41.05 61.4H35.2C34.225 61.4 33.25 60.42 33.25 59.44V56.8267C33.25 55.8467 34.225 54.8667 35.2 54.8667H41.05C42.025 54.8667 43 55.8467 43 56.8267V59.44ZM62.5 67.9333H49.5V64.6667H62.5V67.9333ZM36.825 51.6L40.725 43.76C41.375 42.4533 42.675 41.8 43.975 41.8H68.025C69.325 41.8 70.625 42.4533 71.275 43.76L75.175 51.6H36.825ZM78.75 59.44C78.75 60.42 77.775 61.4 76.8 61.4H70.95C69.975 61.4 69 60.42 69 59.44V56.8267C69 55.8467 69.975 54.8667 70.95 54.8667H76.8C77.775 54.8667 78.75 55.8467 78.75 56.8267V59.44Z" fill="white"/>
</svg>
