<svg width="111" height="111" viewBox="0 0 111 111" fill="none" xmlns="http://www.w3.org/2000/svg">
<circle cx="55.5" cy="55.5" r="55.5" fill="#351B80"/>
<path d="M77.1136 76.634V68.7566C77.1136 66.5509 76.7985 64.3452 75.5381 62.1395C74.2777 59.9339 72.7022 58.0433 70.4965 56.7829C68.2908 55.2074 63.5644 54.8923 61.3587 54.8923L56.3172 60.249L58.2078 64.3452V73.7981L55.0568 77.2642L51.9058 73.7981V64.3452L54.1115 60.249L48.7548 54.8923C46.2341 54.8923 41.5076 55.2074 39.3019 56.7829C37.0963 58.0433 35.8359 59.9339 34.5755 62.1395C33.3151 64.3452 33 66.2358 33 68.7566V76.634C33 76.634 41.1925 80.1001 55.0568 80.1001C68.921 80.1001 77.1136 76.634 77.1136 76.634Z" fill="white"/>
<path d="M55.0568 30C49.07 30 45.6039 35.6717 46.5492 41.9737C47.4945 48.2756 50.6455 52.687 55.0568 52.687C59.4682 52.687 62.6191 48.2756 63.5644 41.9737C64.5097 35.3566 61.0437 30 55.0568 30V30Z" fill="white"/>
</svg>
