<svg width="99" height="72" viewBox="0 0 99 72" fill="none" xmlns="http://www.w3.org/2000/svg">
<rect width="99" height="72" rx="6" fill="white"/>
<path d="M40.0197 14.7238C38.7727 14.7315 37.5796 15.2331 36.7019 16.1189C35.8241 17.0046 35.3333 18.2022 35.3369 19.4492L35.4867 52.3821C35.4932 53.6295 35.9945 54.8233 36.8806 55.7014C37.7666 56.5794 38.965 57.0699 40.2124 57.0651L59.0326 56.9803C60.3301 56.9744 61.5037 56.4418 62.3515 55.5863C63.1993 54.7308 63.7213 53.5523 63.7154 52.2548L63.5656 19.322C63.5554 16.7287 61.4332 14.6256 58.8399 14.639L40.0197 14.7238V14.7238ZM51.9388 49.149C51.9402 49.4579 51.8808 49.764 51.7639 50.0499C51.6469 50.3358 51.4749 50.5959 51.2575 50.8153C51.04 51.0347 50.7815 51.2091 50.4967 51.3286C50.2119 51.4481 49.9063 51.5103 49.5974 51.5117C49.2885 51.5131 48.9824 51.4536 48.6965 51.3367C48.4106 51.2198 48.1505 51.0477 47.9311 50.8303C47.7117 50.6128 47.5372 50.3543 47.4177 50.0695C47.2982 49.7847 47.236 49.4791 47.2346 49.1702C47.2317 48.5464 47.4768 47.947 47.9159 47.5039C48.355 47.0608 48.9522 46.8103 49.576 46.8075C50.1998 46.8047 50.7992 47.0498 51.2423 47.4889C51.6854 47.928 51.936 48.5252 51.9388 49.149V49.149Z" fill="#07659D"/>
<path d="M71.7994 46.0524L66.9445 46.0744L66.8513 25.4737L71.7079 25.4534L71.7994 46.0524Z" fill="#07659D"/>
<path d="M27.2537 25.653L32.1086 25.631L32.2019 46.2317L27.3453 46.252L27.2537 25.653Z" fill="#07659D"/>
<path d="M57.0723 21.0158L42.0487 21.1384C40.9178 21.1476 40.0075 22.0729 40.0167 23.2038L40.1393 38.2275C40.1485 39.3583 41.0738 40.2686 42.2047 40.2594L57.2284 40.1368C58.3592 40.1276 59.2696 39.2023 59.2603 38.0714L59.1377 23.0478C59.1285 21.9169 58.2032 21.0066 57.0723 21.0158ZM45.5436 36.1557C45.432 36.3524 45.2468 36.4967 45.0288 36.5569C44.8108 36.6171 44.5778 36.5882 44.3811 36.4766C44.1844 36.365 44.0401 36.1798 43.9799 35.9618C43.9197 35.7438 43.9486 35.5108 44.0602 35.3141L44.6621 34.2548C45.3474 34.0402 45.9121 34.1974 46.3562 34.7272L45.5436 36.1557ZM51.453 33.8073L43.6892 33.8707C43.2194 33.8745 42.8324 33.4932 42.8286 33.0241C42.8248 32.5549 43.2061 32.1673 43.6753 32.1635L45.8523 32.1457L48.6039 27.2915L47.7168 25.788C47.6026 25.593 47.5702 25.3607 47.6268 25.142C47.6834 24.9232 47.8243 24.7357 48.0187 24.6205C48.2137 24.5063 48.4459 24.474 48.6647 24.5305C48.8835 24.5871 49.071 24.728 49.1862 24.9224L49.5713 25.5762L49.9456 24.9162C50.0009 24.8188 50.0748 24.7332 50.1631 24.6644C50.2514 24.5955 50.3524 24.5448 50.4604 24.515C50.5683 24.4852 50.6811 24.4769 50.7922 24.4907C50.9033 24.5045 51.0107 24.54 51.1081 24.5953C51.2055 24.6505 51.291 24.7244 51.3599 24.8128C51.4287 24.9011 51.4795 25.0021 51.5093 25.11C51.5391 25.218 51.5473 25.3307 51.5335 25.4419C51.5198 25.553 51.4842 25.6603 51.429 25.7577L47.8191 32.1303L50.4694 32.1087C51.3312 32.1017 51.8222 33.1091 51.4523 33.808L51.453 33.8073ZM55.6398 33.7732L54.4017 33.7833L55.2501 35.2235C55.4884 35.6313 55.3512 36.1535 54.9482 36.3911C54.5404 36.6293 54.0182 36.4922 53.7806 36.0892C52.3568 33.6723 51.2916 31.8541 50.5776 30.6477C49.8546 29.4154 50.3526 28.1739 50.8572 27.7518C51.4244 28.7163 52.2728 30.1606 53.4065 32.0847L55.6259 32.0666C55.8523 32.0648 56.0701 32.1529 56.2315 32.3117C56.3929 32.4705 56.4846 32.6869 56.4865 32.9133C56.4883 33.1397 56.4002 33.3575 56.2414 33.5189C56.0826 33.6803 55.8662 33.772 55.6398 33.7739L55.6398 33.7732Z" fill="white"/>
</svg>
