<svg width="99" height="72" viewBox="0 0 99 72" fill="none" xmlns="http://www.w3.org/2000/svg">
<rect width="99" height="72" rx="6" fill="white"/>
<path d="M43.8274 29.6328C41.7178 25.7555 44.2405 22.7618 48.8281 20.9707V18.3408H43.9868L42.3808 24.0329C41.2629 24.3238 40.1541 24.7588 39.0724 25.3519L33.6184 22.1001L30.3727 25.4127L33.3214 31.0355C32.7492 32.0616 32.3 33.1544 31.9838 34.2901L26 35.949V40.642L31.9518 42.4264C32.2573 43.5588 32.6945 44.6594 33.2645 45.7007L30.2374 51.2244L33.4833 54.537L38.9386 51.4094C39.9793 51.994 41.0466 52.4322 42.1232 52.7345L43.8065 59H48.4046L50.1368 52.6031C51.1475 52.287 52.1224 51.8617 53.0447 51.3345L58.7729 54.675L62.0186 51.3624L58.7621 45.4604C59.5976 43.893 60.1666 42.1381 60.3902 40.24H54.6461C53.4899 46.0843 46.8776 49.4031 41.5164 46.2484C34.2099 41.9541 36.7068 30.9224 43.8275 29.6328H43.8274ZM57.4774 24.7704C55.8223 25.7507 55.8223 28.2149 57.4774 29.1951C59.1325 30.1754 61.2126 28.9434 61.2126 26.9828C61.2126 25.0221 59.1325 23.7901 57.4774 24.7704ZM67.0208 22.0548C68.7662 14.1322 65.1663 11.2704 58.7727 17.1232C52.1813 11.2031 48.7127 14.1794 50.4595 22.0169C42.8253 24.4149 42.2905 29.3555 50.3957 31.8494C48.638 40.3596 52.9741 42.2294 58.7746 36.6792C64.9376 42.4984 68.7658 39.852 67.1179 31.8127C74.5991 29.346 75.348 24.9364 67.0208 22.0547V22.0548ZM59.8149 35.5892C60.7215 34.6497 61.3586 33.8156 62.036 32.8047C63.3216 32.6852 64.3559 32.5092 65.6623 32.2085C66.9915 38.4225 64.6475 40.4005 59.8148 35.5892H59.8149ZM52.3526 23.0864C53.2551 22.9233 53.5306 22.8764 54.3177 22.7942C53.8344 23.6127 53.5451 23.9265 53.0562 24.9917C52.7306 24.1586 52.6417 23.9127 52.3526 23.0864V23.0864ZM54.3151 31.0754C53.5234 31.0143 53.1817 30.9138 52.2499 30.7167C52.5179 29.9251 52.6339 29.6289 52.9935 28.748C53.5256 29.7758 53.7259 30.1308 54.3151 31.0754ZM56.2693 22.6153C58.0265 22.503 59.5568 22.4837 61.2438 22.6141C62.2543 24.2173 63.0357 25.5452 63.6532 26.8475C62.8282 28.5503 62.0704 29.9418 61.1505 31.2501C59.5103 31.3734 58.0421 31.3808 56.3651 31.2824C55.4199 29.8851 54.6684 28.4967 53.8625 26.8493C54.6402 25.3022 55.3787 24.0079 56.2693 22.6154V22.6153ZM63.2066 22.8308C64.0311 22.9202 64.2882 22.9663 65.1341 23.1481C64.86 23.9696 64.7731 24.2222 64.4531 25.0147C63.9378 24.0291 63.771 23.7231 63.2066 22.8308V22.8308ZM64.4964 28.7448C64.854 29.5547 64.9541 29.8356 65.2341 30.6848C64.3972 30.8734 64.1096 30.9306 63.211 31.0561C63.801 30.1114 63.9863 29.7716 64.4964 28.7448ZM58.7457 34.4484C58.1783 33.7714 58.0223 33.5831 57.5581 32.96C58.6184 32.9998 58.9323 33.0017 59.9587 32.9606C59.4537 33.6466 59.2987 33.8392 58.7457 34.4484V34.4484ZM51.8215 32.2426C53.1279 32.5434 54.193 32.719 55.4786 32.8384C56.156 33.8494 56.793 34.6499 57.6996 35.5894C52.6752 40.2938 50.5103 38.5667 51.8215 32.2426ZM52.1215 26.9133C51.5794 28.1088 51.1797 29.1346 50.7839 30.3605C44.3134 28.4208 44.6909 25.3952 50.848 23.4725C51.206 24.6326 51.5947 25.6768 52.1215 26.9133ZM57.7006 18.2094C56.845 19.1083 56.1914 19.9743 55.4135 21.0947C54.1209 21.235 53.1122 21.3293 51.9477 21.6208C50.2413 14.8542 53.3119 13.8154 57.7006 18.2093V18.2094ZM60.1056 20.9762C59.0243 20.9481 58.581 20.9521 57.4043 20.9774C57.9321 20.2024 58.1445 19.9348 58.7408 19.3046C59.359 19.9599 59.5819 20.218 60.1056 20.9762ZM65.5642 21.6562C64.3178 21.3659 63.3143 21.2168 62.0999 21.1257C61.3884 20.081 60.7291 19.2306 59.8112 18.2126C64.5367 13.613 67.093 15.3254 65.5642 21.6562V21.6562ZM66.6979 30.3253C66.3075 29.0994 65.9269 28.1089 65.3923 26.9134C65.9118 25.6769 66.2807 24.701 66.6338 23.541C73.5218 25.705 72.2239 28.6471 66.6978 30.3253H66.6979Z" fill="#FB8500"/>
</svg>
