<svg width="99" height="72" viewBox="0 0 99 72" fill="none" xmlns="http://www.w3.org/2000/svg">
<rect width="99" height="72" rx="6" fill="white"/>
<path d="M61.1111 55.3331C61.0944 56.0711 61.2256 56.8049 61.4971 57.4916C61.7687 58.1783 62.175 58.804 62.6922 59.3318C63.2095 59.8597 63.8273 60.2792 64.5093 60.5657C65.1913 60.8522 65.9238 60.9998 66.6639 61C67.4039 61.0002 68.1365 60.8529 68.8186 60.5668C69.5008 60.2806 70.1188 59.8615 70.6363 59.3338C71.1538 58.8062 71.5605 58.1807 71.8323 57.4942C72.1042 56.8076 72.2358 56.0738 72.2194 55.3358C72.1873 53.8879 71.5883 52.5101 70.5504 51.4972C69.5126 50.4844 68.1185 49.9171 66.6666 49.9167C65.2147 49.9164 63.8204 50.483 62.782 51.4953C61.7437 52.5076 61.1439 53.8852 61.1111 55.3331ZM33.3333 55.3331C33.3333 56.8028 33.9186 58.2123 34.9605 59.2516C36.0024 60.2909 37.4155 60.8747 38.8889 60.8747C40.3623 60.8747 41.7754 60.2909 42.8173 59.2516C43.8591 58.2123 44.4444 56.8028 44.4444 55.3331C44.4444 53.8633 43.8591 52.4538 42.8173 51.4146C41.7754 50.3753 40.3623 49.7914 38.8889 49.7914C37.4155 49.7914 36.0024 50.3753 34.9605 51.4146C33.9186 52.4538 33.3333 53.8633 33.3333 55.3331V55.3331ZM43.1861 41.9556L73.9306 33.1942C74.2312 33.0942 74.4943 32.9056 74.6853 32.6533C74.8762 32.401 74.9859 32.0969 75 31.7811V16.5416H36.1111V12.1083C36.1111 11.4987 35.6083 11 35.0028 11H26.1083C25.8144 11.0015 25.5329 11.1188 25.3253 11.3264C25.1176 11.534 25.0007 11.8151 25 12.1083V16.5416H30.5556L35.8611 41.3598L36.1111 43.9727V48.5418C36.1111 49.1486 36.6111 49.6501 37.2222 49.6501H73.8889C74.5 49.6501 75 49.1458 75 48.5418V44.2498H43.7556C40.5611 44.2498 40.4944 42.7231 43.1861 41.9556V41.9556Z" fill="#69AC55"/>
</svg>
