<svg width="99" height="72" viewBox="0 0 99 72" fill="none" xmlns="http://www.w3.org/2000/svg">
<rect width="99" height="72" rx="6" fill="white"/>
<path d="M70.6165 55.7722L64.3024 49.4666V25.2085L61.3205 19.6977C61.1005 19.2775 60.7705 18.9257 60.366 18.6803C59.9616 18.4349 59.4981 18.3052 59.0256 18.3052C58.5532 18.3052 58.0897 18.4349 57.6852 18.6803C57.2808 18.9257 56.9508 19.2775 56.7308 19.6977L53.9303 25.2215V39.0963L30.2171 15.3854C30.0357 15.2017 29.804 15.0764 29.5515 15.0255C29.299 14.9746 29.0372 15.0004 28.7993 15.0996C28.5615 15.1988 28.3585 15.367 28.2161 15.5826C28.0738 15.7983 27.9985 16.0516 28 16.3104V26.837H30.8135V28.9215H28V37.2594H30.8135V39.3439H28V48.0075H30.8135V50.092H28V56.6972C28 57.0427 28.1366 57.3741 28.3798 57.6184C28.6229 57.8627 28.9527 58 29.2965 58H69.6959C69.9535 58.0015 70.2056 57.9259 70.4202 57.7828C70.6348 57.6398 70.8021 57.4358 70.9009 57.1968C70.9996 56.9578 71.0253 56.6947 70.9747 56.4409C70.924 56.1872 70.7993 55.9544 70.6165 55.7722V55.7722ZM38.3721 47.6818V35.8784L50.1315 47.6818H38.3721ZM61.7094 50.4307H56.5234V47.2649H61.7094V50.4307ZM61.7094 45.2195H56.5234V25.8599L59.0386 20.9483L61.7094 25.8729V45.2195Z" fill="#FF5A22"/>
</svg>
