<svg width="99" height="72" viewBox="0 0 99 72" fill="none" xmlns="http://www.w3.org/2000/svg">
<rect width="99" height="72" rx="6" fill="white"/>
<path d="M73.5312 58.2273L71.3281 60.522C71.0156 60.8088 70.6406 60.9522 70.2031 60.9522C69.7656 60.9522 69.3906 60.8088 69.0781 60.522L62 53.2556C60.125 54.3392 58.125 54.881 56 54.881C52.6875 54.881 49.8594 53.6859 47.5156 51.2956C45.1719 48.9054 44 46.0211 44 42.6429C44 39.2647 45.1719 36.3805 47.5156 33.9902C49.8594 31.6 52.6875 30.4049 56 30.4049C59.3125 30.4049 62.1406 31.6 64.4844 33.9902C66.8281 36.3805 68 39.2647 68 42.6429C68 44.8101 67.4687 46.8338 66.4062 48.7141L73.5312 55.9805C73.8437 56.2992 74 56.6737 74 57.1039C74 57.5341 73.8437 57.9086 73.5312 58.2273V58.2273ZM56.0234 33.4644C53.5391 33.4644 51.4141 34.3567 49.6484 36.1415C47.8828 37.9262 47 40.0854 47 42.619C47 45.1527 47.8828 47.3198 49.6484 49.1205C51.4141 50.9211 53.5391 51.8215 56.0234 51.8215C58.5078 51.8215 60.625 50.9211 62.375 49.1205C64.125 47.3198 65 45.1527 65 42.619C65 40.0854 64.125 37.9262 62.375 36.1415C60.625 34.3567 58.5078 33.4644 56.0234 33.4644ZM59 27.6322V27.3454C59 26.4849 59.2969 25.7598 59.8906 25.1702C60.4844 24.5807 61.1875 24.2859 62 24.2859H68C68.8438 24.2859 69.5625 24.5807 70.1562 25.1702C70.75 25.7598 71.0469 26.4849 71.0469 27.3454V42.6429H71C71 38.9779 69.8672 35.7351 67.6016 32.9146C65.3359 30.0941 62.4688 28.3333 59 27.6322ZM44 33.4644V21.2263C44 20.3659 44.2969 19.6408 44.8906 19.0512C45.4844 18.4616 46.1875 18.1668 47 18.1668H53C53.8438 18.1668 54.5547 18.4616 55.1328 19.0512C55.7109 19.6408 56 20.3659 56 21.2263V27.3454C53.5938 27.3454 51.3438 27.8951 49.25 28.9946C47.1562 30.0941 45.4062 31.5841 44 33.4644ZM44 51.7737C45.4062 53.6859 47.1562 55.1917 49.25 56.2912C51.3438 57.3907 53.5938 57.9405 56 57.9405H59C59 58.7691 58.7109 59.4862 58.1328 60.0917C57.5547 60.6972 56.8438 61 56 61H29C28.1875 61 27.4844 60.6972 26.8906 60.0917C26.2969 59.4862 26 58.7611 26 57.9166C26 57.072 26.2891 56.355 26.8672 55.7654C27.4453 55.1758 28.1562 54.881 29 54.881V15.0595C29 14.2309 29.2969 13.5138 29.8906 12.9083C30.4844 12.3028 31.1875 12 32 12H38C38.8437 12 39.5547 12.3028 40.1328 12.9083C40.7109 13.5138 41 14.2309 41 15.0595V54.881H44V51.7737Z" fill="#E62552"/>
</svg>
