<svg width="99" height="72" viewBox="0 0 99 72" fill="none" xmlns="http://www.w3.org/2000/svg">
<rect width="99" height="72" rx="6" fill="white"/>
<path fill-rule="evenodd" clip-rule="evenodd" d="M59.9114 13.5161C59.8032 13.0872 59.5872 12.6931 59.284 12.3711C58.9807 12.0491 58.6001 11.81 58.1785 11.6764C57.7568 11.5428 57.308 11.5191 56.8746 11.6077C56.4413 11.6962 56.0377 11.894 55.7023 12.1824L38.5593 26.9213L29.0864 29.3056C27.0834 29.8097 25.3628 31.0889 24.303 32.8618C23.2432 34.6346 22.931 36.7558 23.4352 38.7589C23.9393 40.7619 25.2185 42.4826 26.9913 43.5425C28.7641 44.6023 30.8853 44.9145 32.8882 44.4104L33.5931 44.233L41.4198 56.4937C41.7131 56.9531 42.1435 57.3086 42.6501 57.5098C43.1567 57.7109 43.7137 57.7475 44.2422 57.6143L46.7596 56.9807C47.4273 56.8127 48.0008 56.3863 48.3541 55.7953C48.7074 55.2044 48.8114 54.4973 48.6434 53.8296L45.8667 42.7981L64.439 46.8932C64.8709 46.9884 65.32 46.9716 65.7437 46.8444C66.1673 46.7173 66.5515 46.484 66.8596 46.1667C67.1678 45.8493 67.3898 45.4586 67.5045 45.0314C67.6192 44.6042 67.6229 44.1547 67.5151 43.7257L59.9114 13.5161Z" fill="#30CCF1"/>
<path d="M76.6295 36.141L74.0367 35.0109C76.845 28.5677 73.8976 21.0659 67.4543 18.2576L68.5844 15.6648C76.4537 19.0946 80.0557 28.2624 76.6295 36.141ZM71.4438 33.8808L68.851 32.7507C69.5995 31.0315 69.6348 29.0854 68.9491 27.3401C68.2633 25.5949 66.9128 24.1933 65.1941 23.4433L66.3242 20.8505C71.3284 23.0316 73.6213 28.8673 71.4438 33.8808Z" fill="#30CCF1"/>
</svg>
