<svg width="121" height="122" viewBox="0 0 121 122" fill="none" xmlns="http://www.w3.org/2000/svg">
<ellipse cx="60.5" cy="61" rx="60.5" ry="61" fill="#07659D"/>
<path d="M104 70.425C104 72.6 99.6 74.05 94.4667 74.775C91.1667 68.6125 84.5667 63.9 76.8667 60.6375C77.6 59.55 78.3333 58.825 79.0667 57.7375H82C93.3667 57.375 104 64.2625 104 70.425V70.425ZM40.9333 57.375H38C26.6333 57.375 16 64.2625 16 70.425C16 72.6 20.4 74.05 25.5333 74.775C28.8333 68.6125 35.4333 63.9 43.1333 60.6375L40.9333 57.375V57.375ZM60 61C68.0667 61 74.6667 54.475 74.6667 46.5C74.6667 38.525 68.0667 32 60 32C51.9333 32 45.3333 38.525 45.3333 46.5C45.3333 54.475 51.9333 61 60 61ZM60 64.625C44.9667 64.625 30.6667 74.05 30.6667 82.75C30.6667 90 60 90 60 90C60 90 89.3333 90 89.3333 82.75C89.3333 74.05 75.0333 64.625 60 64.625ZM80.9 53.75H82C88.2333 53.75 93 49.0375 93 42.875C93 36.7125 88.2333 32 82 32C80.1667 32 78.7 32.3625 77.2333 33.0875C80.1667 36.7125 82 41.425 82 46.5C82 49.0375 81.6333 51.575 80.9 53.75ZM38 53.75H39.1C38.3667 51.575 38 49.0375 38 46.5C38 41.425 39.8333 36.7125 42.7667 33.0875C41.3 32.3625 39.8333 32 38 32C31.7667 32 27 36.7125 27 42.875C27 49.0375 31.7667 53.75 38 53.75Z" fill="white"/>
</svg>
