<svg width="121" height="122" viewBox="0 0 121 122" fill="none" xmlns="http://www.w3.org/2000/svg">
<ellipse cx="60.5" cy="61" rx="60.5" ry="61" fill="#53A03C"/>
<path d="M35.2087 36.8496L37.6739 47.3586L35.2087 57.8219L44.3848 63.4876L50 72.6715L60.5 70.2042L71 72.6715L76.6152 63.4876L85.7913 57.8219L83.3261 47.3586L85.7913 36.8496L76.6609 31.1839L71 22L60.5 24.513L50.0457 22.0457L44.3391 31.1839L35.2087 36.8496ZM60.5457 65.8178C55.7026 65.8178 51.0578 63.8923 47.6333 60.4648C44.2087 57.0373 42.2848 52.3886 42.2848 47.5414C42.2848 42.6941 44.2087 38.0454 47.6333 34.6179C51.0578 31.1904 55.7026 29.2649 60.5457 29.2649C70.5891 29.2649 78.7609 37.4436 78.7609 47.4957C78.7609 57.6391 70.5891 65.8178 60.5457 65.8178ZM60.4543 61.2487C52.8761 61.2487 46.8043 55.1261 46.8043 47.5414C46.8043 40.0023 52.8761 33.834 60.4543 33.834C68.0326 33.834 74.1957 40.0023 74.1957 47.5414C74.1957 55.1261 68.0326 61.2487 60.4543 61.2487ZM77.9848 66.2747L72.1413 76.5095L62.6457 74.3621L74.1957 101L80.587 90.9479H92L77.9848 66.2747ZM42.8326 66.5946L48.5391 76.8751L58.263 74.5448L46.8043 101L40.413 90.9479H29L42.8326 66.5946Z" fill="white"/>
</svg>
