<svg width="122" height="122" viewBox="0 0 122 122" fill="none" xmlns="http://www.w3.org/2000/svg">
<circle cx="61" cy="61" r="61" fill="#219EBC"/>
<path d="M45.4068 77H68.8068C75.2662 77 80.5068 71.625 80.5068 65H84.4068C93.0112 65 100.007 57.825 100.007 49C100.007 40.175 93.0112 33 84.4068 33H36.6318C35.0109 33 33.7068 34.3375 33.7068 36V65C33.7068 71.625 38.9474 77 45.4068 77ZM84.4068 41C88.709 41 92.2068 44.5875 92.2068 49C92.2068 53.4125 88.709 57 84.4068 57H80.5068V41H84.4068ZM90.2202 89H27.8934C22.0921 89 20.459 81 23.5059 81H94.5956C97.6424 81 96.0337 89 90.2202 89V89Z" fill="white"/>
</svg>
