<svg xmlns="http://www.w3.org/2000/svg" viewBox="0 0 92 92" width="80" height="80">
	<style>
		tspan { white-space:pre }
		.shp0 { fill: #157ebd } 
		.shp1 { fill: #ffffff } 
	</style>
	<path id="Layer" class="shp0" d="M91.65 28.54C91.65 57.12 96.69 92 68.63 92C40.56 92 0 83.21 0 54.63C0 26.05 26.66 9.52 54.73 9.52C90.34 -8.62 91.65 -0.05 91.65 28.54Z" />
	<path id="Layer" fill-rule="evenodd" class="shp1" d="M84.92 51.31C84.92 73.79 67.5 92 46 92C24.5 92 7.08 73.79 7.08 51.31C7.08 28.83 24.5 10.62 46 10.62C67.5 10.62 84.92 28.83 84.92 51.31ZM34.58 63.22C34.19 62.05 32.84 60.84 30.91 60.84L30.52 60.84C30.25 60.84 29.99 60.91 29.76 61.04C29.54 61.18 29.34 61.38 29.21 61.62L26.55 66.23C26.37 66.55 26.26 66.91 26.21 67.27C26.16 67.64 26.18 68.01 26.27 68.37C26.36 68.73 26.52 69.07 26.74 69.36C26.95 69.66 27.22 69.9 27.53 70.09C27.94 70.35 28.41 70.48 28.89 70.48C29.36 70.48 29.83 70.36 30.24 70.11C30.65 69.87 30.99 69.52 31.23 69.09L34.58 63.22ZM53.73 60.01C53.85 59.72 53.92 59.4 53.93 59.07C53.93 58.08 53.61 57.39 53.05 56.39L53 56.28C52.36 55.14 50.79 54.44 49.53 54.44L39.52 54.44L39.52 54.42L46.32 42.31L49.44 36.73L52.66 31C53.39 29.69 53.07 27.97 51.84 27.15C51.53 26.94 51.19 26.8 50.83 26.74C50.47 26.68 50.11 26.69 49.75 26.78C49.4 26.86 49.07 27.02 48.77 27.25C48.48 27.47 48.23 27.76 48.05 28.09L46.33 31.16L46.31 31.16L44.59 28.09C44.4 27.76 44.16 27.47 43.86 27.25C43.57 27.02 43.23 26.86 42.88 26.77C42.52 26.68 42.16 26.67 41.8 26.73C41.44 26.8 41.09 26.94 40.79 27.15C39.54 27.97 39.22 29.69 39.95 31L43.17 36.73L33.23 54.41L24.85 54.41C23.4 54.41 22.12 55.57 22.07 57.09C22.05 57.47 22.11 57.85 22.24 58.21C22.36 58.56 22.56 58.89 22.81 59.16C23.06 59.44 23.37 59.66 23.7 59.8C24.04 59.95 24.4 60.03 24.76 60.03L36.32 60.03L53.72 60.01L53.73 60.01ZM67.24 60.03C67.61 60.03 67.97 59.95 68.31 59.8C68.64 59.65 68.95 59.43 69.2 59.16C69.46 58.88 69.66 58.56 69.79 58.2C69.92 57.84 69.98 57.46 69.96 57.08C69.9 55.57 68.64 54.4 67.18 54.4L59.38 54.4L50.3 38.35C50.3 38.35 49.69 38.74 48.88 40.23C48.32 41.29 48.04 42.48 48.06 43.69C48.08 44.9 48.4 46.09 48.99 47.13L53.07 54.42L56.24 60.05L61.33 69.11C61.57 69.53 61.91 69.88 62.32 70.12C62.73 70.37 63.19 70.49 63.66 70.49C64.16 70.49 64.65 70.35 65.07 70.08C65.68 69.68 66.11 69.05 66.28 68.32C66.45 67.59 66.34 66.82 65.97 66.17L62.52 60.05L62.52 60.03L67.24 60.03Z" />
</svg>