<svg width="82" height="73" viewBox="0 0 82 73" fill="none" xmlns="http://www.w3.org/2000/svg">
<rect width="82" height="73" rx="5" fill="#07659D"/>
<path fill-rule="evenodd" clip-rule="evenodd" d="M39.6905 12.2151C39.9372 12.0741 40.2165 12 40.5006 12C40.7848 12 41.064 12.0741 41.3108 12.2151L64.178 25.2821C64.428 25.4249 64.6358 25.6312 64.7804 25.8802C64.9249 26.1292 65.0011 26.4119 65.0012 26.6998V29.0519C65.0012 43.8568 55.1847 56.8715 40.9482 60.9354C40.6556 61.0187 40.3456 61.0187 40.0531 60.9354C33.1242 58.9557 27.0288 54.7731 22.6889 49.0204C18.349 43.2677 16.001 36.258 16 29.0519L16 26.6998C16.0001 26.4119 16.0763 26.1292 16.2209 25.8802C16.3654 25.6312 16.5732 25.4249 16.8232 25.2821L39.6905 12.2151ZM39.1024 46.9896L53.2083 29.3524L50.6602 27.314L38.632 42.3443L30.1124 35.2457L28.0216 37.7545L39.1024 46.9896Z" fill="white"/>
</svg>
