<svg version="1.2" baseProfile="tiny-ps" xmlns="http://www.w3.org/2000/svg" viewBox="0 0 82 73" width="30" height="27">
	<title>check-svg</title>
	<style>
		tspan { white-space:pre }
		.shp0 { fill: #e5e5e5 } 
		.shp1 { fill: #1a86fd } 
		.shp2 { fill: #ffffff } 
	</style>
	<path id="Layer" class="shp0" d="M0 0L82 0L82 73L0 73L0 0Z" />
	<path id="Layer" class="shp1" d="M5 0L77 0C79.77 0 82 2.23 82 5L82 68C82 70.77 79.77 73 77 73L5 73C2.23 73 0 70.77 0 68L0 5C0 2.23 2.23 0 5 0Z" />
	<path id="Layer" fill-rule="evenodd" class="shp2" d="M40.5 12C40.78 12 41.06 12.07 41.31 12.22L64.18 25.28C64.43 25.42 64.64 25.63 64.78 25.88C64.92 26.13 65 26.41 65 26.7L65 29.05C65 43.86 55.18 56.87 40.95 60.94C40.66 61.02 40.35 61.02 40.05 60.94C33.12 58.96 27.03 54.77 22.69 49.02C18.35 43.27 16 36.26 16 29.05L16 26.7C16 26.41 16.08 26.13 16.22 25.88C16.37 25.63 16.57 25.42 16.82 25.28L39.69 12.22C39.94 12.07 40.22 12 40.5 12ZM53.21 29.35L50.66 27.31L38.63 42.34L30.11 35.25L28.02 37.75L39.1 46.99L53.21 29.35Z" />
</svg>