<svg width="45" height="51" viewBox="0 0 45 51" fill="none" xmlns="http://www.w3.org/2000/svg">
<path d="M44.5986 48.3577L37.9909 40.879V12.1078L34.8702 5.57164C34.64 5.07332 34.2947 4.65609 33.8714 4.36503C33.4482 4.07396 32.9631 3.92012 32.4687 3.92012C31.9742 3.92012 31.4892 4.07396 31.066 4.36503C30.6427 4.65609 30.2973 5.07332 30.0671 5.57164L27.1364 12.1232V28.5794L2.32018 0.457089C2.1304 0.239173 1.88794 0.0905568 1.6237 0.0301871C1.35946 -0.0301826 1.08543 0.000429739 0.836526 0.118121C0.587626 0.235813 0.375141 0.435251 0.226161 0.691009C0.0771806 0.946767 -0.0015443 1.24726 2.29532e-05 1.55417V14.0392H2.94432V16.5115H2.29532e-05V26.4007H2.94432V28.873H2.29532e-05V39.1484H2.94432V41.6207H2.29532e-05V49.4548C2.29532e-05 49.8646 0.142973 50.2576 0.397426 50.5474C0.651878 50.8372 0.996991 51 1.35684 51H43.6353C43.9048 51.0018 44.1686 50.9121 44.3932 50.7424C44.6178 50.5728 44.7929 50.3308 44.8963 50.0473C44.9996 49.7639 45.0265 49.4518 44.9735 49.1509C44.9205 48.85 44.79 48.5738 44.5986 48.3577V48.3577ZM10.8546 38.7621V24.7628L23.1609 38.7621H10.8546ZM35.2773 42.0225H29.85V38.2677H35.2773V42.0225ZM35.2773 35.8417H29.85V12.8803L32.4822 7.05501L35.2773 12.8958V35.8417Z" fill="white"/>
</svg>
