<svg width="34" height="33" viewBox="0 0 34 33" fill="none" xmlns="http://www.w3.org/2000/svg">
<path fill-rule="evenodd" clip-rule="evenodd" d="M16.4379 0.144855C16.6091 0.0499291 16.8028 0 17 0C17.1972 0 17.3909 0.0499291 17.5621 0.144855L33.4288 8.94546C33.6023 9.04163 33.7464 9.1806 33.8468 9.34829C33.9471 9.51598 33.9999 9.70642 34 9.90032V11.4844C34 21.4555 27.1887 30.2209 17.3105 32.9579C17.1075 33.014 16.8924 33.014 16.6895 32.9579C11.8818 31.6246 7.65242 28.8076 4.64116 24.9332C1.62991 21.0587 0.000680782 16.3377 0 11.4844L0 9.90032C6.44346e-05 9.70642 0.0529295 9.51598 0.153239 9.34829C0.253549 9.1806 0.397739 9.04163 0.5712 8.94546L16.4379 0.144855V0.144855ZM16.0299 23.5655L25.8173 11.6868L24.0493 10.314L15.7035 20.4368L9.792 15.6559L8.34133 17.3456L16.0299 23.5655V23.5655Z" fill="#07659D"/>
</svg>
