<svg width="52" height="43" viewBox="0 0 52 43" fill="none" xmlns="http://www.w3.org/2000/svg">
<rect width="52" height="43" fill="#07659D"/>
<path d="M21.66 23.146C21.66 24.8327 21.484 26.2773 21.132 27.48C20.78 28.6827 20.208 29.6067 19.416 30.252C18.624 30.8973 17.5753 31.22 16.27 31.22C14.422 31.22 13.0653 30.5087 12.2 29.086C11.3347 27.6487 10.902 25.6687 10.902 23.146C10.902 21.4447 11.078 19.9927 11.43 18.79C11.782 17.5873 12.3467 16.6633 13.124 16.018C13.916 15.3727 14.9647 15.05 16.27 15.05C18.1033 15.05 19.46 15.7613 20.34 17.184C21.22 18.6067 21.66 20.594 21.66 23.146ZM13.696 23.146C13.696 25.0673 13.8793 26.512 14.246 27.48C14.6273 28.448 15.302 28.932 16.27 28.932C17.2233 28.932 17.8907 28.4553 18.272 27.502C18.668 26.534 18.866 25.082 18.866 23.146C18.866 21.21 18.668 19.758 18.272 18.79C17.8907 17.822 17.2233 17.338 16.27 17.338C15.302 17.338 14.6273 17.822 14.246 18.79C13.8793 19.758 13.696 21.21 13.696 23.146ZM30.5318 31H27.7598V21.21C27.7598 20.7407 27.7672 20.242 27.7818 19.714C27.7965 19.186 27.8185 18.6947 27.8478 18.24C27.7012 18.3867 27.5178 18.5627 27.2978 18.768C27.0778 18.9587 26.8505 19.1567 26.6158 19.362L24.8558 20.77L23.4698 19.054L28.2218 15.292H30.5318V31ZM35.2457 29.592C35.2457 28.976 35.407 28.5433 35.7297 28.294C36.0524 28.03 36.4484 27.898 36.9177 27.898C37.3724 27.898 37.7684 28.03 38.1057 28.294C38.443 28.5433 38.6117 28.976 38.6117 29.592C38.6117 30.1933 38.443 30.626 38.1057 30.89C37.7684 31.154 37.3724 31.286 36.9177 31.286C36.4484 31.286 36.0524 31.154 35.7297 30.89C35.407 30.626 35.2457 30.1933 35.2457 29.592Z" fill="white"/>
</svg>
