<svg width="52" height="43" viewBox="0 0 52 43" fill="none" xmlns="http://www.w3.org/2000/svg">
<rect width="52" height="43" fill="#07659D"/>
<path d="M22.66 23.146C22.66 24.8327 22.484 26.2773 22.132 27.48C21.78 28.6827 21.208 29.6067 20.416 30.252C19.624 30.8973 18.5753 31.22 17.27 31.22C15.422 31.22 14.0653 30.5087 13.2 29.086C12.3347 27.6487 11.902 25.6687 11.902 23.146C11.902 21.4447 12.078 19.9927 12.43 18.79C12.782 17.5873 13.3467 16.6633 14.124 16.018C14.916 15.3727 15.9647 15.05 17.27 15.05C19.1033 15.05 20.46 15.7613 21.34 17.184C22.22 18.6067 22.66 20.594 22.66 23.146ZM14.696 23.146C14.696 25.0673 14.8793 26.512 15.246 27.48C15.6273 28.448 16.302 28.932 17.27 28.932C18.2233 28.932 18.8907 28.4553 19.272 27.502C19.668 26.534 19.866 25.082 19.866 23.146C19.866 21.21 19.668 19.758 19.272 18.79C18.8907 17.822 18.2233 17.338 17.27 17.338C16.302 17.338 15.6273 17.822 15.246 18.79C14.8793 19.758 14.696 21.21 14.696 23.146ZM34.6338 31H23.8758V28.954L27.8798 24.906C28.6718 24.0993 29.3172 23.41 29.8158 22.838C30.3292 22.266 30.7032 21.7307 30.9378 21.232C31.1872 20.7187 31.3118 20.1687 31.3118 19.582C31.3118 18.8633 31.1065 18.328 30.6958 17.976C30.2852 17.6093 29.7425 17.426 29.0678 17.426C28.4078 17.426 27.7918 17.5653 27.2198 17.844C26.6478 18.108 26.0538 18.4893 25.4378 18.988L23.9198 17.162C24.5652 16.6047 25.2985 16.1207 26.1198 15.71C26.9412 15.2847 27.9752 15.072 29.2218 15.072C30.2338 15.072 31.1065 15.2553 31.8398 15.622C32.5732 15.974 33.1305 16.4653 33.5118 17.096C33.9078 17.7267 34.1058 18.46 34.1058 19.296C34.1058 20.1467 33.9372 20.9313 33.5998 21.65C33.2625 22.354 32.7712 23.0653 32.1258 23.784C31.4952 24.488 30.7398 25.2507 29.8598 26.072L27.3738 28.47V28.602H34.6338V31ZM36.2457 29.592C36.2457 28.976 36.407 28.5433 36.7297 28.294C37.0524 28.03 37.4484 27.898 37.9177 27.898C38.3724 27.898 38.7684 28.03 39.1057 28.294C39.443 28.5433 39.6117 28.976 39.6117 29.592C39.6117 30.1933 39.443 30.626 39.1057 30.89C38.7684 31.154 38.3724 31.286 37.9177 31.286C37.4484 31.286 37.0524 31.154 36.7297 30.89C36.407 30.626 36.2457 30.1933 36.2457 29.592Z" fill="white"/>
</svg>
