<svg width="52" height="43" viewBox="0 0 52 43" fill="none" xmlns="http://www.w3.org/2000/svg">
<rect width="52" height="43" fill="#07659D"/>
<path d="M22.66 23.146C22.66 24.8327 22.484 26.2773 22.132 27.48C21.78 28.6827 21.208 29.6067 20.416 30.252C19.624 30.8973 18.5753 31.22 17.27 31.22C15.422 31.22 14.0653 30.5087 13.2 29.086C12.3347 27.6487 11.902 25.6687 11.902 23.146C11.902 21.4447 12.078 19.9927 12.43 18.79C12.782 17.5873 13.3467 16.6633 14.124 16.018C14.916 15.3727 15.9647 15.05 17.27 15.05C19.1033 15.05 20.46 15.7613 21.34 17.184C22.22 18.6067 22.66 20.594 22.66 23.146ZM14.696 23.146C14.696 25.0673 14.8793 26.512 15.246 27.48C15.6273 28.448 16.302 28.932 17.27 28.932C18.2233 28.932 18.8907 28.4553 19.272 27.502C19.668 26.534 19.866 25.082 19.866 23.146C19.866 21.21 19.668 19.758 19.272 18.79C18.8907 17.822 18.2233 17.338 17.27 17.338C16.302 17.338 15.6273 17.822 15.246 18.79C14.8793 19.758 14.696 21.21 14.696 23.146ZM34.0178 18.878C34.0178 19.9487 33.7025 20.8067 33.0718 21.452C32.4558 22.0827 31.6565 22.508 30.6738 22.728V22.794C31.9352 22.9553 32.8885 23.3513 33.5338 23.982C34.1792 24.598 34.5018 25.4267 34.5018 26.468C34.5018 27.3773 34.2818 28.1913 33.8418 28.91C33.4018 29.6287 32.7198 30.1933 31.7958 30.604C30.8865 31.0147 29.7132 31.22 28.2758 31.22C27.4252 31.22 26.6332 31.1467 25.8998 31C25.1665 30.868 24.4772 30.6553 23.8318 30.362V27.92C24.4918 28.2573 25.1958 28.514 25.9438 28.69C26.6918 28.866 27.3958 28.954 28.0558 28.954C29.3318 28.954 30.2338 28.7267 30.7618 28.272C31.2898 27.8027 31.5538 27.1573 31.5538 26.336C31.5538 25.5587 31.2458 24.9793 30.6298 24.598C30.0138 24.2167 28.9872 24.026 27.5498 24.026H26.2298V21.804H27.5718C28.9652 21.804 29.9258 21.584 30.4538 21.144C30.9818 20.6893 31.2458 20.0953 31.2458 19.362C31.2458 18.7313 31.0405 18.24 30.6298 17.888C30.2192 17.536 29.6032 17.36 28.7818 17.36C27.9898 17.36 27.3078 17.492 26.7358 17.756C26.1638 18.0053 25.6505 18.2767 25.1958 18.57L23.8758 16.656C24.4625 16.216 25.1665 15.842 25.9878 15.534C26.8238 15.226 27.7992 15.072 28.9138 15.072C30.5418 15.072 31.7958 15.4167 32.6758 16.106C33.5705 16.7807 34.0178 17.7047 34.0178 18.878ZM36.2457 29.592C36.2457 28.976 36.407 28.5433 36.7297 28.294C37.0524 28.03 37.4484 27.898 37.9177 27.898C38.3724 27.898 38.7684 28.03 39.1057 28.294C39.443 28.5433 39.6117 28.976 39.6117 29.592C39.6117 30.1933 39.443 30.626 39.1057 30.89C38.7684 31.154 38.3724 31.286 37.9177 31.286C37.4484 31.286 37.0524 31.154 36.7297 30.89C36.407 30.626 36.2457 30.1933 36.2457 29.592Z" fill="white"/>
</svg>
