<svg width="38" height="22" viewBox="0 0 38 22" fill="none" xmlns="http://www.w3.org/2000/svg">
<path d="M19.268 10.952C19.268 13.064 18.86 14.948 18.044 16.604C17.252 18.236 16.16 19.52 14.768 20.456C13.4 21.392 11.828 21.86 10.052 21.86C8.3 21.86 6.728 21.392 5.336 20.456C3.944 19.52 2.84 18.236 2.024 16.604C1.232 14.948 0.836 13.064 0.836 10.952C0.836 8.84 1.232 6.968 2.024 5.336C2.84 3.68 3.944 2.384 5.336 1.448C6.728 0.487999 8.3 0.0079999 10.052 0.0079999C11.828 0.0079999 13.4 0.487999 14.768 1.448C16.16 2.384 17.252 3.68 18.044 5.336C18.86 6.968 19.268 8.84 19.268 10.952ZM15.236 10.952C15.236 9.512 15.02 8.252 14.588 7.172C14.156 6.068 13.544 5.216 12.752 4.616C11.96 3.992 11.06 3.68 10.052 3.68C9.02 3.68 8.108 3.992 7.316 4.616C6.524 5.216 5.9 6.068 5.444 7.172C5.012 8.252 4.796 9.512 4.796 10.952C4.796 12.392 5.012 13.652 5.444 14.732C5.9 15.812 6.524 16.664 7.316 17.288C8.108 17.888 9.02 18.188 10.052 18.188C11.06 18.188 11.948 17.888 12.716 17.288C13.508 16.664 14.12 15.812 14.552 14.732C15.008 13.652 15.236 12.392 15.236 10.952ZM37.2053 17.936V21.5H23.4533V17.936H28.5653V5.372C28.3493 5.66 28.0133 5.96 27.5573 6.272C27.1013 6.584 26.5853 6.884 26.0093 7.172C25.4573 7.436 24.8933 7.652 24.3173 7.82C23.7413 7.988 23.2133 8.072 22.7333 8.072V4.364C23.2133 4.364 23.7653 4.22 24.3893 3.932C25.0133 3.644 25.6253 3.308 26.2253 2.924C26.8493 2.516 27.3773 2.132 27.8093 1.772C28.2413 1.388 28.4933 1.112 28.5653 0.943999H32.6333V17.936H37.2053Z" fill="#E13938"/>
</svg>
