<svg width="40" height="22" viewBox="0 0 40 22" fill="none" xmlns="http://www.w3.org/2000/svg">
<path d="M19.268 10.952C19.268 13.064 18.86 14.948 18.044 16.604C17.252 18.236 16.16 19.52 14.768 20.456C13.4 21.392 11.828 21.86 10.052 21.86C8.3 21.86 6.728 21.392 5.336 20.456C3.944 19.52 2.84 18.236 2.024 16.604C1.232 14.948 0.836 13.064 0.836 10.952C0.836 8.84 1.232 6.968 2.024 5.336C2.84 3.68 3.944 2.384 5.336 1.448C6.728 0.487999 8.3 0.0079999 10.052 0.0079999C11.828 0.0079999 13.4 0.487999 14.768 1.448C16.16 2.384 17.252 3.68 18.044 5.336C18.86 6.968 19.268 8.84 19.268 10.952ZM15.236 10.952C15.236 9.512 15.02 8.252 14.588 7.172C14.156 6.068 13.544 5.216 12.752 4.616C11.96 3.992 11.06 3.68 10.052 3.68C9.02 3.68 8.108 3.992 7.316 4.616C6.524 5.216 5.9 6.068 5.444 7.172C5.012 8.252 4.796 9.512 4.796 10.952C4.796 12.392 5.012 13.652 5.444 14.732C5.9 15.812 6.524 16.664 7.316 17.288C8.108 17.888 9.02 18.188 10.052 18.188C11.06 18.188 11.948 17.888 12.716 17.288C13.508 16.664 14.12 15.812 14.552 14.732C15.008 13.652 15.236 12.392 15.236 10.952ZM22.5533 21.5C22.5533 20.492 22.6373 19.568 22.8053 18.728C22.9733 17.864 23.2613 17.048 23.6693 16.28C24.1013 15.512 24.6893 14.792 25.4333 14.12C26.2013 13.424 27.1733 12.764 28.3493 12.14C29.1893 11.66 29.9813 11.24 30.7253 10.88C31.4693 10.496 32.1293 10.124 32.7053 9.764C33.2813 9.38 33.7253 8.972 34.0373 8.54C34.3733 8.108 34.5413 7.616 34.5413 7.064C34.5413 6.536 34.3973 6.044 34.1093 5.588C33.8213 5.132 33.3893 4.772 32.8133 4.508C32.2373 4.22 31.5413 4.076 30.7253 4.076C30.0773 4.076 29.4773 4.16 28.9253 4.328C28.3973 4.496 27.9053 4.724 27.4493 5.012C27.0173 5.276 26.6213 5.576 26.2613 5.912C25.9013 6.224 25.5893 6.536 25.3253 6.848L22.8413 4.004C23.0813 3.716 23.4533 3.392 23.9573 3.032C24.4853 2.648 25.1093 2.276 25.8293 1.916C26.5733 1.532 27.4133 1.22 28.3493 0.979998C29.2853 0.715999 30.3053 0.583999 31.4093 0.583999C32.9693 0.583999 34.3013 0.847999 35.4053 1.376C36.5093 1.88 37.3493 2.588 37.9253 3.5C38.5253 4.388 38.8253 5.396 38.8253 6.524C38.8253 7.412 38.6453 8.192 38.2853 8.864C37.9493 9.536 37.5053 10.136 36.9533 10.664C36.4013 11.168 35.8133 11.612 35.1893 11.996C34.5893 12.356 34.0253 12.68 33.4973 12.968C32.5613 13.424 31.7453 13.844 31.0493 14.228C30.3773 14.612 29.8013 14.996 29.3213 15.38C28.8413 15.74 28.4453 16.124 28.1333 16.532C27.8213 16.916 27.5573 17.384 27.3413 17.936H39.2213V21.5H22.5533Z" fill="#CA3093"/>
</svg>
