<svg width="40" height="27" viewBox="0 0 40 27" fill="none" xmlns="http://www.w3.org/2000/svg">
<path d="M19.268 10.952C19.268 13.064 18.86 14.948 18.044 16.604C17.252 18.236 16.16 19.52 14.768 20.456C13.4 21.392 11.828 21.86 10.052 21.86C8.3 21.86 6.728 21.392 5.336 20.456C3.944 19.52 2.84 18.236 2.024 16.604C1.232 14.948 0.836 13.064 0.836 10.952C0.836 8.84 1.232 6.968 2.024 5.336C2.84 3.68 3.944 2.384 5.336 1.448C6.728 0.487999 8.3 0.0079999 10.052 0.0079999C11.828 0.0079999 13.4 0.487999 14.768 1.448C16.16 2.384 17.252 3.68 18.044 5.336C18.86 6.968 19.268 8.84 19.268 10.952ZM15.236 10.952C15.236 9.512 15.02 8.252 14.588 7.172C14.156 6.068 13.544 5.216 12.752 4.616C11.96 3.992 11.06 3.68 10.052 3.68C9.02 3.68 8.108 3.992 7.316 4.616C6.524 5.216 5.9 6.068 5.444 7.172C5.012 8.252 4.796 9.512 4.796 10.952C4.796 12.392 5.012 13.652 5.444 14.732C5.9 15.812 6.524 16.664 7.316 17.288C8.108 17.888 9.02 18.188 10.052 18.188C11.06 18.188 11.948 17.888 12.716 17.288C13.508 16.664 14.12 15.812 14.552 14.732C15.008 13.652 15.236 12.392 15.236 10.952ZM34.3973 13.004C35.4053 13.172 36.2813 13.556 37.0253 14.156C37.7933 14.732 38.3813 15.476 38.7893 16.388C39.1973 17.276 39.4013 18.284 39.4013 19.412C39.4013 20.9 39.0293 22.196 38.2853 23.3C37.5653 24.404 36.5333 25.256 35.1893 25.856C33.8453 26.48 32.2613 26.792 30.4373 26.792C28.6133 26.792 27.0053 26.468 25.6133 25.82C24.2213 25.196 23.1053 24.284 22.2653 23.084L24.6773 20.348C25.2533 21.212 25.9973 21.896 26.9093 22.4C27.8213 22.928 28.9733 23.192 30.3653 23.192C31.9253 23.192 33.1373 22.856 34.0013 22.184C34.8653 21.512 35.2973 20.504 35.2973 19.16C35.2973 17.768 34.8173 16.676 33.8573 15.884C32.9213 15.092 31.5053 14.696 29.6093 14.696H28.6373V11.6H29.7173C31.3253 11.6 32.5613 11.228 33.4253 10.484C34.2893 9.716 34.7213 8.756 34.7213 7.604C34.7213 6.836 34.5413 6.212 34.1813 5.732C33.8453 5.228 33.3653 4.856 32.7413 4.616C32.1173 4.376 31.3973 4.256 30.5813 4.256C29.3573 4.256 28.2773 4.52 27.3413 5.048C26.4053 5.576 25.6613 6.332 25.1093 7.316L22.6253 4.616C23.1053 3.848 23.7653 3.176 24.6053 2.6C25.4453 2.024 26.4053 1.58 27.4853 1.268C28.5893 0.931999 29.7533 0.763999 30.9773 0.763999C32.5613 0.763999 33.9533 1.028 35.1533 1.556C36.3533 2.084 37.2773 2.828 37.9253 3.788C38.5973 4.748 38.9333 5.876 38.9333 7.172C38.9333 8.108 38.7533 8.996 38.3933 9.836C38.0333 10.652 37.5053 11.348 36.8093 11.924C36.1133 12.476 35.3093 12.836 34.3973 13.004Z" fill="#21A2F5"/>
</svg>
