<svg width="40" height="27" viewBox="0 0 40 27" fill="none" xmlns="http://www.w3.org/2000/svg">
<path d="M19.268 10.952C19.268 13.064 18.86 14.948 18.044 16.604C17.252 18.236 16.16 19.52 14.768 20.456C13.4 21.392 11.828 21.86 10.052 21.86C8.3 21.86 6.728 21.392 5.336 20.456C3.944 19.52 2.84 18.236 2.024 16.604C1.232 14.948 0.836 13.064 0.836 10.952C0.836 8.84 1.232 6.968 2.024 5.336C2.84 3.68 3.944 2.384 5.336 1.448C6.728 0.487999 8.3 0.0079999 10.052 0.0079999C11.828 0.0079999 13.4 0.487999 14.768 1.448C16.16 2.384 17.252 3.68 18.044 5.336C18.86 6.968 19.268 8.84 19.268 10.952ZM15.236 10.952C15.236 9.512 15.02 8.252 14.588 7.172C14.156 6.068 13.544 5.216 12.752 4.616C11.96 3.992 11.06 3.68 10.052 3.68C9.02 3.68 8.108 3.992 7.316 4.616C6.524 5.216 5.9 6.068 5.444 7.172C5.012 8.252 4.796 9.512 4.796 10.952C4.796 12.392 5.012 13.652 5.444 14.732C5.9 15.812 6.524 16.664 7.316 17.288C8.108 17.888 9.02 18.188 10.052 18.188C11.06 18.188 11.948 17.888 12.716 17.288C13.508 16.664 14.12 15.812 14.552 14.732C15.008 13.652 15.236 12.392 15.236 10.952ZM30.5453 26.864C28.6973 26.864 27.0413 26.444 25.5773 25.604C24.1133 24.788 22.9973 23.672 22.2293 22.256L24.6053 19.988C25.2773 21.02 26.1413 21.836 27.1973 22.436C28.2533 23.06 29.3813 23.372 30.5813 23.372C31.5653 23.372 32.4413 23.156 33.2093 22.724C33.9773 22.316 34.5773 21.74 35.0093 20.996C35.4653 20.228 35.6933 19.352 35.6933 18.368C35.6933 17.408 35.4773 16.568 35.0453 15.848C34.6133 15.104 34.0373 14.54 33.3173 14.156C32.5973 13.748 31.7693 13.544 30.8333 13.544C29.9213 13.544 29.0693 13.748 28.2773 14.156C27.4853 14.564 26.8373 15.14 26.3333 15.884H22.8413L25.7573 0.943999H38.2493V4.58H28.6373L27.3413 11.564C27.7493 11.132 28.3013 10.784 28.9973 10.52C29.6933 10.232 30.4853 10.088 31.3733 10.088C32.9813 10.088 34.4093 10.448 35.6573 11.168C36.9293 11.864 37.9253 12.824 38.6453 14.048C39.3893 15.272 39.7613 16.688 39.7613 18.296C39.7613 20 39.3533 21.488 38.5373 22.76C37.7213 24.056 36.6173 25.064 35.2253 25.784C33.8333 26.504 32.2733 26.864 30.5453 26.864Z" fill="#FB8500"/>
</svg>
