<svg width="42" height="27" viewBox="0 0 42 27" fill="none" xmlns="http://www.w3.org/2000/svg">
<path d="M19.268 15.952C19.268 18.064 18.86 19.948 18.044 21.604C17.252 23.236 16.16 24.52 14.768 25.456C13.4 26.392 11.828 26.86 10.052 26.86C8.3 26.86 6.728 26.392 5.336 25.456C3.944 24.52 2.84 23.236 2.024 21.604C1.232 19.948 0.836 18.064 0.836 15.952C0.836 13.84 1.232 11.968 2.024 10.336C2.84 8.68 3.944 7.384 5.336 6.448C6.728 5.488 8.3 5.008 10.052 5.008C11.828 5.008 13.4 5.488 14.768 6.448C16.16 7.384 17.252 8.68 18.044 10.336C18.86 11.968 19.268 13.84 19.268 15.952ZM15.236 15.952C15.236 14.512 15.02 13.252 14.588 12.172C14.156 11.068 13.544 10.216 12.752 9.616C11.96 8.992 11.06 8.68 10.052 8.68C9.02 8.68 8.108 8.992 7.316 9.616C6.524 10.216 5.9 11.068 5.444 12.172C5.012 13.252 4.796 14.512 4.796 15.952C4.796 17.392 5.012 18.652 5.444 19.732C5.9 20.812 6.524 21.664 7.316 22.288C8.108 22.888 9.02 23.188 10.052 23.188C11.06 23.188 11.948 22.888 12.716 22.288C13.508 21.664 14.12 20.812 14.552 19.732C15.008 18.652 15.236 17.392 15.236 15.952ZM41.4173 18.004C41.4173 16.396 41.0213 14.956 40.2293 13.684C39.4613 12.388 38.4053 11.356 37.0613 10.588C35.7413 9.82 34.2413 9.436 32.5613 9.436C31.6733 9.436 30.8333 9.58 30.0413 9.868C29.2493 10.156 28.5533 10.564 27.9533 11.092C27.3773 11.596 26.9093 12.208 26.5493 12.928C26.5733 11.08 26.8253 9.508 27.3053 8.212C27.8093 6.916 28.5053 5.932 29.3933 5.26C30.3053 4.564 31.3493 4.216 32.5253 4.216C33.7013 4.216 34.7693 4.516 35.7293 5.116C36.7133 5.692 37.4813 6.484 38.0333 7.492L40.3733 5.044C39.5333 3.7 38.4293 2.656 37.0613 1.912C35.7173 1.144 34.2293 0.759999 32.5973 0.759999C30.6293 0.759999 28.9133 1.312 27.4493 2.416C25.9853 3.52 24.8453 5.164 24.0293 7.348C23.2373 9.532 22.8413 12.256 22.8413 15.52C22.8413 17.872 23.2253 19.9 23.9933 21.604C24.7853 23.308 25.8773 24.616 27.2693 25.528C28.6853 26.416 30.3293 26.86 32.2013 26.86C33.9293 26.86 35.4893 26.464 36.8813 25.672C38.2973 24.88 39.4013 23.812 40.1933 22.468C41.0093 21.124 41.4173 19.636 41.4173 18.004ZM32.2013 23.476C31.2413 23.476 30.3413 23.224 29.5013 22.72C28.6853 22.216 28.0253 21.556 27.5213 20.74C27.0173 19.9 26.7653 18.988 26.7653 18.004C26.7653 17.02 27.0053 16.12 27.4853 15.304C27.9893 14.488 28.6613 13.84 29.5013 13.36C30.3413 12.856 31.2413 12.604 32.2013 12.604C33.2093 12.604 34.1213 12.856 34.9373 13.36C35.7533 13.84 36.4013 14.488 36.8813 15.304C37.3853 16.12 37.6373 17.02 37.6373 18.004C37.6373 18.988 37.3853 19.9 36.8813 20.74C36.4013 21.58 35.7413 22.252 34.9013 22.756C34.0853 23.236 33.1853 23.476 32.2013 23.476Z" fill="#1378AC"/>
</svg>
