<svg width="100" height="100" viewBox="0 0 100 100" fill="none" xmlns="http://www.w3.org/2000/svg">
<path d="M52.955 24.1935H58.3319C58.5084 24.194 58.6833 24.1596 58.8466 24.0924C59.0098 24.0251 59.1581 23.9263 59.2831 23.8017C59.4081 23.677 59.5073 23.5289 59.5749 23.3658C59.6426 23.2028 59.6774 23.028 59.6774 22.8515V17.4745C59.6774 17.1177 59.5357 16.7755 59.2833 16.5231C59.031 16.2708 58.6888 16.129 58.3319 16.129H52.955C52.7785 16.129 52.6037 16.1639 52.4406 16.2315C52.2776 16.2992 52.1295 16.3983 52.0048 16.5233C51.8801 16.6483 51.7813 16.7967 51.7141 16.9599C51.6468 17.1231 51.6125 17.298 51.6129 17.4745V22.8515C51.6129 23.593 52.2134 24.1935 52.955 24.1935Z" fill="#07659D"/>
<path d="M64.2453 24.1935H69.6222C69.7988 24.194 69.9737 24.1596 70.1369 24.0924C70.3001 24.0251 70.4485 23.9263 70.5734 23.8017C70.6984 23.677 70.7976 23.5289 70.8653 23.3658C70.9329 23.2028 70.9677 23.028 70.9677 22.8515V17.4745C70.9677 17.1177 70.826 16.7755 70.5737 16.5231C70.3213 16.2708 69.9791 16.129 69.6222 16.129H64.2453C64.0688 16.129 63.894 16.1639 63.7309 16.2315C63.5679 16.2992 63.4198 16.3983 63.2951 16.5233C63.1704 16.6483 63.0716 16.7967 63.0044 16.9599C62.9372 17.1231 62.9028 17.298 62.9032 17.4745V22.8515C62.9032 23.593 63.5054 24.1935 64.2453 24.1935Z" fill="#07659D"/>
<path d="M75.2672 24.1935H79.5687C79.71 24.194 79.8499 24.1596 79.9805 24.0924C80.111 24.0251 80.2297 23.9263 80.3297 23.8017C80.4297 23.677 80.509 23.5289 80.5632 23.3658C80.6173 23.2028 80.6452 23.028 80.6452 22.8515V17.4745C80.6452 17.1177 80.5317 16.7755 80.3299 16.5231C80.128 16.2708 79.8542 16.129 79.5687 16.129H75.2672C75.126 16.129 74.9861 16.1639 74.8557 16.2315C74.7253 16.2992 74.6068 16.3983 74.507 16.5233C74.4073 16.6483 74.3283 16.7967 74.2745 16.9599C74.2207 17.1231 74.1932 17.298 74.1935 17.4745V22.8515C74.1935 23.593 74.6739 24.1935 75.2672 24.1935Z" fill="#07659D"/>
<path d="M85.2131 24.1935H90.59C90.7665 24.194 90.9414 24.1596 91.1046 24.0924C91.2678 24.0251 91.4162 23.9263 91.5412 23.8017C91.6662 23.677 91.7653 23.5289 91.833 23.3658C91.9007 23.2028 91.9355 23.028 91.9355 22.8515V17.4745C91.9355 17.1177 91.7937 16.7755 91.5414 16.5231C91.2891 16.2708 90.9468 16.129 90.59 16.129H85.2131C85.0365 16.129 84.8617 16.1639 84.6987 16.2315C84.5356 16.2992 84.3875 16.3983 84.2628 16.5233C84.1382 16.6483 84.0394 16.7967 83.9721 16.9599C83.9049 17.1231 83.8705 17.298 83.871 17.4745V22.8515C83.871 23.593 84.4732 24.1935 85.2131 24.1935Z" fill="#07659D"/>
<path d="M58.3319 75.8065H52.955C52.7785 75.8065 52.6037 75.8413 52.4406 75.9089C52.2776 75.9766 52.1295 76.0758 52.0048 76.2008C51.8801 76.3257 51.7813 76.4741 51.7141 76.6373C51.6468 76.8006 51.6125 76.9754 51.6129 77.152V82.5289C51.6129 83.2705 52.2151 83.871 52.955 83.871H58.3319C58.5084 83.8714 58.6833 83.837 58.8466 83.7698C59.0098 83.7026 59.1581 83.6038 59.2831 83.4791C59.4081 83.3544 59.5073 83.2063 59.5749 83.0433C59.6426 82.8802 59.6774 82.7054 59.6774 82.5289V77.152C59.6777 76.9752 59.643 76.8001 59.5755 76.6368C59.5079 76.4735 59.4088 76.325 59.2838 76.2C59.1589 76.0751 59.0104 75.976 58.8471 75.9084C58.6837 75.8409 58.5087 75.8062 58.3319 75.8065" fill="#07659D"/>
<path d="M64.2453 83.871H69.6222C69.7988 83.8714 69.9736 83.837 70.1369 83.7698C70.3001 83.7026 70.4485 83.6038 70.5734 83.4791C70.6984 83.3544 70.7976 83.2063 70.8653 83.0433C70.9329 82.8802 70.9677 82.7054 70.9677 82.5289V77.152C70.968 76.9752 70.9333 76.8001 70.8658 76.6368C70.7982 76.4735 70.6991 76.325 70.5742 76.2C70.4492 76.0751 70.3007 75.976 70.1374 75.9084C69.9741 75.8409 69.799 75.8062 69.6222 75.8065H64.2453C64.0688 75.8065 63.894 75.8413 63.7309 75.9089C63.5679 75.9766 63.4198 76.0758 63.2951 76.2008C63.1704 76.3257 63.0716 76.4741 63.0044 76.6373C62.9372 76.8006 62.9028 76.9754 62.9032 77.152V82.5289C62.9032 83.2688 63.5054 83.871 64.2453 83.871Z" fill="#07659D"/>
<path d="M75.2672 83.871H79.5687C79.71 83.8714 79.8499 83.837 79.9805 83.7698C80.111 83.7026 80.2297 83.6038 80.3297 83.4791C80.4297 83.3544 80.509 83.2063 80.5632 83.0433C80.6173 82.8802 80.6452 82.7054 80.6452 82.5289V77.152C80.6453 76.9752 80.6176 76.8001 80.5636 76.6368C80.5096 76.4735 80.4303 76.325 80.3303 76.2C80.2303 76.0751 80.1116 75.976 79.9809 75.9084C79.8502 75.8409 79.7101 75.8062 79.5687 75.8065H75.2672C75.126 75.8065 74.9861 75.8413 74.8557 75.9089C74.7253 75.9766 74.6068 76.0758 74.507 76.2008C74.4073 76.3257 74.3283 76.4741 74.2745 76.6373C74.2207 76.8006 74.1932 76.9754 74.1935 77.152V82.5289C74.1935 83.2688 74.6739 83.871 75.2672 83.871Z" fill="#07659D"/>
<path d="M85.2131 83.871H90.59C90.7665 83.8714 90.9414 83.837 91.1046 83.7698C91.2678 83.7026 91.4162 83.6038 91.5412 83.4791C91.6662 83.3544 91.7653 83.2063 91.833 83.0433C91.9007 82.8802 91.9355 82.7054 91.9355 82.5289V77.152C91.9357 76.9752 91.9011 76.8001 91.8335 76.6368C91.766 76.4735 91.6669 76.325 91.5419 76.2C91.4169 76.0751 91.2685 75.976 91.1051 75.9084C90.9418 75.8409 90.7667 75.8062 90.59 75.8065H85.2131C85.0365 75.8065 84.8617 75.8413 84.6987 75.9089C84.5356 75.9766 84.3875 76.0758 84.2628 76.2008C84.1382 76.3257 84.0394 76.4741 83.9721 76.6373C83.9049 76.8006 83.8705 76.9754 83.871 77.152V82.5289C83.871 83.2688 84.4732 83.871 85.2131 83.871Z" fill="#07659D"/>
<path d="M64.2453 54.8387H69.6222C69.7988 54.8392 69.9736 54.8048 70.1369 54.7375C70.3001 54.6703 70.4485 54.5715 70.5734 54.4468C70.6984 54.3222 70.7976 54.1741 70.8653 54.011C70.9329 53.848 70.9677 53.6732 70.9677 53.4966V48.1197C70.968 47.943 70.9333 47.7679 70.8658 47.6045C70.7982 47.4412 70.6991 47.2928 70.5742 47.1678C70.4492 47.0428 70.3007 46.9437 70.1374 46.8762C69.9741 46.8086 69.799 46.774 69.6222 46.7742H64.2453C64.0688 46.7742 63.894 46.809 63.7309 46.8767C63.5679 46.9443 63.4198 47.0435 63.2951 47.1685C63.1704 47.2935 63.0716 47.4418 63.0044 47.6051C62.9372 47.7683 62.9028 47.9432 62.9032 48.1197V53.4966C62.9032 54.2382 63.5054 54.8387 64.2453 54.8387Z" fill="#07659D"/>
<path d="M75.2672 54.8387H79.5687C79.71 54.8392 79.8499 54.8048 79.9805 54.7375C80.111 54.6703 80.2297 54.5715 80.3297 54.4468C80.4297 54.3222 80.509 54.1741 80.5632 54.011C80.6173 53.848 80.6452 53.6732 80.6452 53.4966V48.1197C80.6453 47.943 80.6176 47.7679 80.5636 47.6045C80.5096 47.4412 80.4303 47.2928 80.3303 47.1678C80.2303 47.0428 80.1116 46.9437 79.9809 46.8762C79.8502 46.8086 79.7101 46.774 79.5687 46.7742H75.2672C75.126 46.7742 74.9861 46.809 74.8557 46.8767C74.7253 46.9443 74.6068 47.0435 74.507 47.1685C74.4073 47.2935 74.3283 47.4418 74.2745 47.6051C74.2207 47.7683 74.1932 47.9432 74.1935 48.1197V53.4966C74.1935 54.2382 74.6739 54.8387 75.2672 54.8387Z" fill="#07659D"/>
<path d="M52.955 43.5484H58.3319C59.0769 43.5484 59.6774 43.0667 59.6774 42.4722V38.173C59.6774 37.8875 59.5357 37.6138 59.2833 37.412C59.031 37.2102 58.6888 37.0968 58.3319 37.0968H52.955C52.7785 37.0968 52.6037 37.1246 52.4406 37.1787C52.2776 37.2329 52.1295 37.3122 52.0048 37.4121C51.8801 37.5121 51.7813 37.6308 51.7141 37.7613C51.6468 37.8919 51.6125 38.0318 51.6129 38.173V42.4722C51.6125 42.6134 51.6468 42.7533 51.7141 42.8838C51.7813 43.0144 51.8801 43.133 52.0048 43.233C52.1295 43.333 52.2776 43.4123 52.4406 43.4664C52.6037 43.5205 52.7785 43.5484 52.955 43.5484" fill="#07659D"/>
<path d="M64.2453 43.5484H69.6222C70.3672 43.5484 70.9677 43.0667 70.9677 42.4722V38.173C70.9677 37.8875 70.826 37.6138 70.5737 37.412C70.3213 37.2102 69.9791 37.0968 69.6222 37.0968H64.2453C64.0688 37.0968 63.894 37.1246 63.7309 37.1787C63.5679 37.2329 63.4198 37.3122 63.2951 37.4121C63.1704 37.5121 63.0716 37.6308 63.0044 37.7613C62.9372 37.8919 62.9028 38.0318 62.9032 38.173V42.4722C62.9032 43.0681 63.5054 43.5484 64.2453 43.5484Z" fill="#07659D"/>
<path d="M75.2672 43.5484H79.5687C80.1648 43.5484 80.6452 43.0667 80.6452 42.4722V38.173C80.6452 37.8875 80.5317 37.6138 80.3299 37.412C80.128 37.2102 79.8542 37.0968 79.5687 37.0968H75.2672C75.126 37.0968 74.9861 37.1246 74.8557 37.1787C74.7253 37.2329 74.6068 37.3122 74.507 37.4121C74.4073 37.5121 74.3283 37.6308 74.2745 37.7613C74.2207 37.8919 74.1932 38.0318 74.1935 38.173V42.4722C74.1932 42.6134 74.2207 42.7533 74.2745 42.8838C74.3283 43.0144 74.4073 43.133 74.507 43.233C74.6068 43.333 74.7253 43.4123 74.8557 43.4664C74.9861 43.5205 75.126 43.5484 75.2672 43.5484" fill="#07659D"/>
<path d="M85.2131 43.5484H90.59C91.335 43.5484 91.9355 43.0667 91.9355 42.4722V38.173C91.9355 37.8875 91.7937 37.6138 91.5414 37.412C91.2891 37.2102 90.9468 37.0968 90.59 37.0968H85.2131C85.0365 37.0968 84.8617 37.1246 84.6987 37.1787C84.5356 37.2329 84.3875 37.3122 84.2628 37.4121C84.1382 37.5121 84.0394 37.6308 83.9721 37.7613C83.9049 37.8919 83.8705 38.0318 83.871 38.173V42.4722C83.871 43.0681 84.4732 43.5484 85.2131 43.5484Z" fill="#07659D"/>
<path d="M52.955 33.871H58.3319C59.0769 33.871 59.6774 33.2688 59.6774 32.5255V27.1485C59.6774 26.4087 59.0752 25.8065 58.3319 25.8065H52.955C52.5991 25.8065 52.2577 25.9479 52.006 26.1995C51.7543 26.4512 51.6129 26.7926 51.6129 27.1485V32.5255C51.6125 32.702 51.6468 32.8769 51.7141 33.0401C51.7813 33.2033 51.8801 33.3517 52.0048 33.4767C52.1295 33.6017 52.2776 33.7008 52.4406 33.7685C52.6037 33.8361 52.7785 33.871 52.955 33.871" fill="#07659D"/>
<path d="M64.2453 33.871H69.6222C70.3672 33.871 70.9677 33.2688 70.9677 32.5255V27.1485C70.9677 26.4087 70.3655 25.8065 69.6222 25.8065H64.2453C63.8894 25.8065 63.548 25.9479 63.2963 26.1995C63.0446 26.4512 62.9032 26.7926 62.9032 27.1485V32.5255C62.9032 33.2688 63.5054 33.871 64.2453 33.871Z" fill="#07659D"/>
<path d="M75.2672 33.871H79.5687C80.1648 33.871 80.6452 33.2688 80.6452 32.5255V27.1485C80.6452 26.4087 80.1634 25.8065 79.5687 25.8065H75.2672C74.9825 25.8065 74.7094 25.9479 74.508 26.1995C74.3067 26.4512 74.1935 26.7926 74.1935 27.1485V32.5255C74.1932 32.702 74.2207 32.8769 74.2745 33.0401C74.3283 33.2033 74.4073 33.3517 74.507 33.4767C74.6068 33.6017 74.7253 33.7008 74.8557 33.7685C74.9861 33.8361 75.126 33.871 75.2672 33.871" fill="#07659D"/>
<path d="M85.213 33.871H90.59C91.335 33.871 91.9355 33.2688 91.9355 32.5255V27.1485C91.9355 26.4087 91.3333 25.8065 90.59 25.8065H85.213C84.8571 25.8065 84.5157 25.9479 84.2641 26.1995C84.0124 26.4512 83.871 26.7926 83.871 27.1485V32.5255C83.871 33.2688 84.4732 33.871 85.213 33.871Z" fill="#07659D"/>
<path d="M93.3333 0H50.4167C47.085 0 43.75 3.22667 43.7517 6.45167V37.5L26.4517 20.2V34.2783H0V65.7233H26.4517V79.8L43.7517 62.4983L43.75 93.5483C43.75 96.775 47.085 100 50.4167 100H93.3333C96.6683 100 100 96.7733 100 93.5483V6.45167C100 3.22667 96.6683 0 93.3333 0ZM89.8417 5.46833C90.2561 5.46811 90.6536 5.63252 90.9468 5.92539C91.2399 6.21826 91.4048 6.6156 91.405 7.03C91.4052 7.4444 91.2408 7.84192 90.9479 8.1351C90.6551 8.42828 90.2577 8.59311 89.8433 8.59333C89.4289 8.59355 89.0314 8.42915 88.7382 8.13628C88.4451 7.84341 88.2802 7.44607 88.28 7.03167C88.2798 6.61727 88.4442 6.21975 88.7371 5.92657C89.0299 5.63339 89.4273 5.46855 89.8417 5.46833V5.46833ZM67.655 6.305H76.095C76.355 6.305 76.5617 6.65167 76.5617 7.08333C76.5617 7.51667 76.355 7.86833 76.095 7.86833H67.655C67.3983 7.86833 67.1883 7.51667 67.1883 7.08333C67.1883 6.65333 67.3967 6.305 67.655 6.305ZM77.735 94.14C77.735 94.2939 77.7047 94.4462 77.6458 94.5884C77.5869 94.7305 77.5006 94.8597 77.3918 94.9685C77.283 95.0773 77.1539 95.1636 77.0117 95.2225C76.8696 95.2814 76.7172 95.3117 76.5633 95.3117H67.1883C67.0345 95.3117 66.8821 95.2814 66.74 95.2225C66.5978 95.1636 66.4686 95.0773 66.3598 94.9685C66.251 94.8597 66.1647 94.7305 66.1059 94.5884C66.047 94.4462 66.0167 94.2939 66.0167 94.14V91.7967C66.0167 91.15 66.5417 90.625 67.1883 90.625H76.5633C77.21 90.625 77.735 91.15 77.735 91.7967V94.14ZM95.3133 87.5H48.4383V57.8133L52.285 53.9667C52.3767 54.165 52.5383 54.2967 52.865 54.2967H58.0733C58.2443 54.2971 58.4137 54.2638 58.5718 54.1987C58.73 54.1335 58.8737 54.0378 58.9947 53.9171C59.1158 53.7963 59.2119 53.6529 59.2774 53.4949C59.3429 53.337 59.3767 53.1677 59.3767 52.9967V47.7883C59.3769 47.6171 59.3433 47.4475 59.2779 47.2893C59.2125 47.1311 59.1165 46.9873 58.9954 46.8662C58.8743 46.7452 58.7306 46.6492 58.5724 46.5838C58.4141 46.5183 58.2446 46.4848 58.0733 46.485H52.865C52.8217 46.485 52.8033 46.5067 52.7617 46.5117L48.4383 42.1883V12.5H95.3133V87.5" fill="#07659D"/>
</svg>
