<svg width="100" height="100" viewBox="0 0 100 100" fill="none" xmlns="http://www.w3.org/2000/svg">
<rect width="100" height="100" fill="#E5E5E5"/>
<path d="M90 68.75H95C97.75 68.75 100 71.5625 100 75.0625V93.6875C100 97.1875 97.75 100 95 100H75C72.25 100 70 97.1875 70 93.6875V75.0625C70 71.5625 72.25 68.75 75 68.75H80V56.25H55V68.75H60C62.75 68.75 65 71.5625 65 75.0625V93.6875C65 97.1875 62.75 100 60 100H40C37.25 100 35 97.1875 35 93.6875V75.0625C35 71.5625 37.25 68.75 40 68.75H45V56.25H20V68.75H25C27.75 68.75 30 71.5625 30 75.0625V93.6875C30 97.1875 27.75 100 25 100H5C2.25 100 0 97.1875 0 93.6875V75.0625C0 71.5625 2.25 68.75 5 68.75H10V56.25C10 49.375 14.5 43.75 20 43.75H45V31.25H40C37.25 31.25 35 28.4375 35 24.9375V6.3125C35 2.8125 37.25 0 40 0H60C62.75 0 65 2.8125 65 6.3125V24.9375C65 28.4375 62.75 31.25 60 31.25H55V43.75H80C85.5 43.75 90 49.375 90 56.25V68.75Z" fill="#07659D"/>
</svg>
