<svg width="100" height="100" viewBox="0 0 100 100" fill="none" xmlns="http://www.w3.org/2000/svg">
<path d="M84.3902 74.5C86.3415 71 87.8049 67 87.8049 62.5C87.8049 50 78.0488 40 65.8537 40C53.6585 40 43.9024 50 43.9024 62.5C43.9024 75 53.6585 85 65.8537 85C70.2439 85 74.1463 83.5 77.561 81.5L93.1707 97.5L100 90.5L84.3902 74.5V74.5ZM65.8537 75C59.0244 75 53.6585 69.5 53.6585 62.5C53.6585 55.5 59.0244 50 65.8537 50C72.6829 50 78.0488 55.5 78.0488 62.5C78.0488 69.5 72.6829 75 65.8537 75ZM48.7805 90V100C21.8537 100 0 77.6 0 50C0 22.4 21.8537 0 48.7805 0C72.3902 0 92.0488 17.2 96.5854 40H86.4878C84.9664 33.9592 82.0875 28.3669 78.0811 23.6701C74.0748 18.9732 69.0522 15.3021 63.4146 12.95V15C63.4146 20.5 59.0244 25 53.6585 25H43.9024V35C43.9024 37.75 41.7073 40 39.0244 40H29.2683V50H39.0244V65H34.1463L10.7805 41.05C10.1463 43.95 9.7561 46.9 9.7561 50C9.7561 72.05 27.2683 90 48.7805 90Z" fill="#07659D"/>
</svg>
