<svg width="100" height="100" viewBox="0 0 100 100" fill="none" xmlns="http://www.w3.org/2000/svg">
<path d="M47.619 9.52381V28.5714H20.5667L10.3571 52.381H95.2381V95.2381C95.2381 96.501 94.7364 97.7122 93.8434 98.6053C92.9503 99.4983 91.7391 100 90.4762 100H85.7143C84.4513 100 83.2401 99.4983 82.3471 98.6053C81.4541 97.7122 80.9524 96.501 80.9524 95.2381V90.4762H14.2857V95.2381C14.2857 96.501 13.784 97.7122 12.891 98.6053C11.998 99.4983 10.7867 100 9.52381 100H4.7619C3.49897 100 2.28776 99.4983 1.39473 98.6053C0.501699 97.7122 0 96.501 0 95.2381V52.381L11.8095 24.819C12.5444 23.1048 13.7665 21.644 15.3241 20.618C16.8817 19.592 18.7063 19.046 20.5714 19.0476H33.3333V9.52381H47.619ZM21.4286 61.9048C19.5342 61.9048 17.7174 62.6573 16.3778 63.9969C15.0383 65.3364 14.2857 67.1532 14.2857 69.0476C14.2857 70.942 15.0383 72.7588 16.3778 74.0984C17.7174 75.4379 19.5342 76.1905 21.4286 76.1905C23.323 76.1905 25.1398 75.4379 26.4793 74.0984C27.8189 72.7588 28.5714 70.942 28.5714 69.0476C28.5714 67.1532 27.8189 65.3364 26.4793 63.9969C25.1398 62.6573 23.323 61.9048 21.4286 61.9048ZM73.8095 61.9048C71.9151 61.9048 70.0983 62.6573 68.7588 63.9969C67.4192 65.3364 66.6667 67.1532 66.6667 69.0476C66.6667 70.942 67.4192 72.7588 68.7588 74.0984C70.0983 75.4379 71.9151 76.1905 73.8095 76.1905C75.7039 76.1905 77.5207 75.4379 78.8603 74.0984C80.1998 72.7588 80.9524 70.942 80.9524 69.0476C80.9524 67.1532 80.1998 65.3364 78.8603 63.9969C77.5207 62.6573 75.7039 61.9048 73.8095 61.9048ZM78.5714 0C84.2546 0 89.7051 2.25765 93.7237 6.27628C97.7424 10.2949 100 15.7454 100 21.4286C100 27.1118 97.7424 32.5622 93.7237 36.5809C89.7051 40.5995 84.2546 42.8571 78.5714 42.8571C72.8882 42.8571 67.4378 40.5995 63.4191 36.5809C59.4005 32.5622 57.1429 27.1118 57.1429 21.4286C57.1429 15.7454 59.4005 10.2949 63.4191 6.27628C67.4378 2.25765 72.8882 0 78.5714 0V0ZM78.5714 24.6048C76.2333 24.6048 74.0952 25.4476 72.4333 26.8429L71.8381 27.3905L78.5714 34.1286L85.3 27.3857C84.4166 26.5023 83.3675 25.8019 82.2128 25.3247C81.0582 24.8475 79.8208 24.6028 78.5714 24.6048ZM78.5714 11.9048C73.0669 11.8965 67.7566 13.9388 63.6762 17.6333L62.8524 18.419L67.3476 22.9048C68.8197 21.4281 70.569 20.2568 72.4952 19.4584C74.4214 18.66 76.4863 18.2501 78.5714 18.2524C82.4304 18.2465 86.1582 19.6523 89.0524 22.2048L89.7952 22.9048L94.2857 18.4143C92.2245 16.3474 89.775 14.7083 87.0782 13.5912C84.3814 12.4741 81.4904 11.9009 78.5714 11.9048V11.9048Z" fill="#07659D"/>
</svg>
