<svg width="100" height="100" viewBox="0 0 100 100" fill="none" xmlns="http://www.w3.org/2000/svg">
<path d="M96.4632 64.2937L72.3405 54.0673L62.1399 49.7426C66.5948 47.2483 70.2132 43.3987 72.5808 38.7619C74.5556 34.8963 75.5771 30.6999 75.5769 26.4546C75.5769 23.9534 75.1302 21.5782 74.5078 19.2865C71.4732 8.18115 61.7148 0 50 0C38.507 0 28.8965 7.88955 25.6739 18.6786C24.9299 21.1538 24.4185 23.7275 24.4185 26.4546C24.4185 31.1899 25.6631 35.605 27.7781 39.445C30.2227 43.8997 33.8473 47.5728 38.259 49.9343L28.4898 53.9769L3.58452 64.2855C1.42179 65.1863 0 67.3548 0 69.7766V94.0969C0 97.3565 2.55553 99.9986 5.71028 99.9986H42.7V81.3775C42.7051 81.1854 42.7685 80.9981 42.8833 80.8354L42.8679 80.8271L48.9263 71.5015L48.9417 71.5097C49.1574 71.1812 49.541 70.9484 50 70.9484C50.459 70.9484 50.8426 71.1798 51.0583 71.5097L51.0644 71.5056L51.1199 71.5919C51.1276 71.6056 51.1384 71.6165 51.1445 71.6302L57.1228 80.8313L57.1151 80.8354C57.2301 80.9986 57.2934 81.1863 57.2984 81.3788V100H94.2882C97.4429 100 100 97.3578 100 94.0982V69.7766C100.005 67.363 98.6059 65.2151 96.4632 64.2937V64.2937ZM57.1197 58.0579L57.1352 58.0661L51.0752 67.3918L51.0598 67.3836C50.9546 67.5516 50.8014 67.6918 50.6155 67.7902C50.4296 67.8885 50.2178 67.9414 50.0015 67.9435C49.7852 67.9414 49.5734 67.8885 49.3876 67.7902C49.2017 67.6918 49.0484 67.5516 48.9433 67.3836L48.9356 67.3877L48.874 67.2932C48.8693 67.2836 48.8601 67.2754 48.8555 67.2658L42.8772 58.062L42.8833 58.0579C42.7684 57.8947 42.7051 57.7069 42.7 57.5144C42.7 56.9052 43.2561 56.411 43.9416 56.411H56.0584C56.7439 56.411 57.3 56.9052 57.3 57.5144C57.2975 57.7069 57.2351 57.895 57.1197 58.0579V58.0579Z" fill="#07659D"/>
</svg>
